<?xml version="1.0" encoding="UTF-8" standalone="no"?>
<!-- Created with Inkscape (http://www.inkscape.org/) -->

<svg
   xmlns:dc="http://purl.org/dc/elements/1.1/"
   xmlns:cc="http://creativecommons.org/ns#"
   xmlns:rdf="http://www.w3.org/1999/02/22-rdf-syntax-ns#"
   xmlns:svg="http://www.w3.org/2000/svg"
   xmlns="http://www.w3.org/2000/svg"
   xmlns:xlink="http://www.w3.org/1999/xlink"
   xmlns:sodipodi="http://sodipodi.sourceforge.net/DTD/sodipodi-0.dtd"
   xmlns:inkscape="http://www.inkscape.org/namespaces/inkscape"
   width="1052.3622"
   height="744.09448"
   id="svg2"
   version="1.1"
   inkscape:version="0.47 r22583"
   sodipodi:docname="solartree.svg">
  <defs
     id="defs4">
    <marker
       inkscape:stockid="Arrow1Lstart"
       orient="auto"
       refY="0.0"
       refX="0.0"
       id="Arrow1Lstart"
       style="overflow:visible">
      <path
         id="path4009"
         d="M 0.0,0.0 L 5.0,-5.0 L -12.5,0.0 L 5.0,5.0 L 0.0,0.0 z "
         style="fill-rule:evenodd;stroke:#000000;stroke-width:1.0pt;marker-start:none"
         transform="scale(0.8) translate(12.5,0)" />
    </marker>
    <marker
       inkscape:stockid="Arrow1Lend"
       orient="auto"
       refY="0.0"
       refX="0.0"
       id="Arrow1Lend"
       style="overflow:visible;">
      <path
         id="path4012"
         d="M 0.0,0.0 L 5.0,-5.0 L -12.5,0.0 L 5.0,5.0 L 0.0,0.0 z "
         style="fill-rule:evenodd;stroke:#000000;stroke-width:1.0pt;marker-start:none;"
         transform="scale(0.8) rotate(180) translate(12.5,0)" />
    </marker>
    <inkscape:perspective
       sodipodi:type="inkscape:persp3d"
       inkscape:vp_x="0 : 526.18109 : 1"
       inkscape:vp_y="0 : 1000 : 0"
       inkscape:vp_z="744.09448 : 526.18109 : 1"
       inkscape:persp3d-origin="372.04724 : 350.78739 : 1"
       id="perspective10" />
    <polygon
       id="TRIANGLE"
       points="0,0.57735 -0.5,-0.288675 0.5,-0.288675" />
    <inkscape:perspective
       id="perspective2942"
       inkscape:persp3d-origin="250 : 166.66667 : 1"
       inkscape:vp_z="500 : 250 : 1"
       inkscape:vp_y="0 : 1000 : 0"
       inkscape:vp_x="0 : 250 : 1"
       sodipodi:type="inkscape:persp3d" />
    <inkscape:perspective
       id="perspective3001"
       inkscape:persp3d-origin="0.5 : 0.33333333 : 1"
       inkscape:vp_z="1 : 0.5 : 1"
       inkscape:vp_y="0 : 1000 : 0"
       inkscape:vp_x="0 : 0.5 : 1"
       sodipodi:type="inkscape:persp3d" />
    <inkscape:perspective
       id="perspective3035"
       inkscape:persp3d-origin="0.5 : 0.33333333 : 1"
       inkscape:vp_z="1 : 0.5 : 1"
       inkscape:vp_y="0 : 1000 : 0"
       inkscape:vp_x="0 : 0.5 : 1"
       sodipodi:type="inkscape:persp3d" />
    <inkscape:perspective
       id="perspective3179"
       inkscape:persp3d-origin="0.5 : 0.33333333 : 1"
       inkscape:vp_z="1 : 0.5 : 1"
       inkscape:vp_y="0 : 1000 : 0"
       inkscape:vp_x="0 : 0.5 : 1"
       sodipodi:type="inkscape:persp3d" />
    <inkscape:perspective
       id="perspective5610"
       inkscape:persp3d-origin="0.5 : 0.33333333 : 1"
       inkscape:vp_z="1 : 0.5 : 1"
       inkscape:vp_y="0 : 1000 : 0"
       inkscape:vp_x="0 : 0.5 : 1"
       sodipodi:type="inkscape:persp3d" />
    <marker
       inkscape:stockid="Arrow1Lstart"
       orient="auto"
       refY="0"
       refX="0"
       id="Arrow1Lstart-5"
       style="overflow:visible">
      <path
         id="path4009-4"
         d="M 0,0 5,-5 -12.5,0 5,5 0,0 z"
         style="fill-rule:evenodd;stroke:#000000;stroke-width:1pt;marker-start:none"
         transform="matrix(0.8,0,0,0.8,10,0)" />
    </marker>
    <marker
       inkscape:stockid="Arrow1Lend"
       orient="auto"
       refY="0"
       refX="0"
       id="Arrow1Lend-0"
       style="overflow:visible">
      <path
         id="path4012-2"
         d="M 0,0 5,-5 -12.5,0 5,5 0,0 z"
         style="fill-rule:evenodd;stroke:#000000;stroke-width:1pt;marker-start:none"
         transform="matrix(-0.8,0,0,-0.8,-10,0)" />
    </marker>
    <inkscape:perspective
       id="perspective6435"
       inkscape:persp3d-origin="0.5 : 0.33333333 : 1"
       inkscape:vp_z="1 : 0.5 : 1"
       inkscape:vp_y="0 : 1000 : 0"
       inkscape:vp_x="0 : 0.5 : 1"
       sodipodi:type="inkscape:persp3d" />
  </defs>
  <sodipodi:namedview
     id="base"
     pagecolor="#ffffff"
     bordercolor="#666666"
     borderopacity="1.0"
     inkscape:pageopacity="0.0"
     inkscape:pageshadow="2"
     inkscape:zoom="0.36554498"
     inkscape:cx="641.97198"
     inkscape:cy="317.14225"
     inkscape:document-units="px"
     inkscape:current-layer="layer1"
     showgrid="true"
     inkscape:window-width="1440"
     inkscape:window-height="828"
     inkscape:window-x="0"
     inkscape:window-y="25"
     inkscape:window-maximized="1">
    <inkscape:grid
       type="xygrid"
       id="grid3230"
       empspacing="5"
       visible="true"
       enabled="true"
       snapvisiblegridlinesonly="true"
       units="mm"
       spacingx="5mm"
       spacingy="5mm" />
  </sodipodi:namedview>
  <metadata
     id="metadata7">
    <rdf:RDF>
      <cc:Work
         rdf:about="">
        <dc:format>image/svg+xml</dc:format>
        <dc:type
           rdf:resource="http://purl.org/dc/dcmitype/StillImage" />
        <dc:title></dc:title>
      </cc:Work>
    </rdf:RDF>
  </metadata>
  <g
     inkscape:label="Layer 1"
     inkscape:groupmode="layer"
     id="layer1"
     transform="translate(0,-308.2677)">
    <g
       id="g2946"
       transform="matrix(1.2675987,0,0,1.2675987,207.17459,362.01384)">
      <path
         id="rect7230"
         d="m 337.59375,19.96875 -0.25,0.4375 -0.25,0.40625 -0.25,0.4375 -0.25,0.40625 -0.21875,0.4375 -0.25,0.40625 -0.25,0.4375 -0.25,0.4375 -0.0937,0.125 -0.125,0.0625 -0.46875,0.15625 -0.4375,0.15625 -0.46875,0.1875 -0.46875,0.15625 -0.46875,0.15625 -0.4375,0.1875 -0.46875,0.15625 -0.46875,0.1875 0.1875,0.4375 0.4375,-0.15625 0.46875,-0.15625 0.46875,-0.1875 0.4375,-0.15625 0.46875,-0.1875 0.46875,-0.15625 0.46875,-0.15625 0.3125,-0.125 0.5,0.59375 0.5625,0.65625 0.5625,0.65625 0.5625,0.6875 0.5625,0.65625 0.5625,0.65625 0.5625,0.6875 0.40625,0.46875 -0.6875,1.1875 -0.7813,1.34375 -0.78125,1.34375 -0.75,1.34375 -0.78125,1.34375 -0.78125,1.34375 -0.78125,1.34375 -0.75,1.34375 -0.25,0.4375 -0.46875,0.15625 -1.46875,0.53125 -1.4375,0.5 -1.46875,0.53125 -1.4375,0.53125 -1.46875,0.53125 -1.4375,0.53125 -1.46875,0.53125 -1.4375,0.53125 0.0312,0.09375 -0.6875,-0.40625 -0.75,-0.40625 -0.75,-0.4375 -0.78125,-0.4375 -0.75,-0.4375 -0.75,-0.4375 -0.75,-0.4375 -0.65625,-0.375 0.0625,-0.375 0.0625,-0.46875 0.0937,-0.5 0.0937,-0.46875 0.0937,-0.5 0.0625,-0.46875 L 316,38 l 0.0937,-0.5 -0.5,-0.09375 -0.0625,0.5 -0.0937,0.46875 -0.0937,0.5 -0.0625,0.46875 -0.0937,0.5 -0.0937,0.46875 -0.0937,0.46875 -0.0625,0.5 -0.0312,0.09375 -0.0937,0.03125 -0.46875,0.1875 -0.46875,0.15625 -0.4375,0.15625 -0.46875,0.1875 L 312.5,42.25 l -0.4375,0.15625 -0.46875,0.1875 -0.46875,0.15625 0.15625,0.46875 0.46875,-0.15625 0.46875,-0.1875 0.46875,-0.15625 0.4375,-0.1875 0.46875,-0.15625 0.46875,-0.15625 0.46875,-0.1875 0.40625,-0.15625 -0.0312,0.0625 0.75,0.4375 0.75,0.4375 0.75,0.4375 0.78125,0.4375 0.75,0.4375 0.75,0.4375 0.75,0.4375 0.75,0.40625 0.15625,0.09375 0,0.1875 0,0.875 0,0.875 0,0.875 0,0.875 0,0.875 0,0.875 0,0.84375 0,0.78125 -0.34375,0.125 -0.4375,0.15625 -0.46875,0.1875 -0.46875,0.15625 -0.46875,0.15625 -0.4375,0.1875 -0.4688,0.15625 -0.46875,0.15625 0.1875,0.46875 0.4375,-0.15625 0.46875,-0.1875 0.46875,-0.15625 0.4375,-0.15625 0.46875,-0.1875 0.46875,-0.15625 0.46875,-0.15625 0.4375,-0.1875 0.15625,-0.0625 0.15625,0.0625 0.4375,0.1875 0.46875,0.15625 0.46875,0.15625 0.46875,0.1875 0.4375,0.15625 0.46875,0.15625 0.46875,0.1875 0.46875,0.15625 0.15625,-0.46875 -0.46875,-0.15625 -0.46875,-0.15625 -0.4375,-0.1875 -0.46875,-0.15625 -0.46875,-0.15625 -0.4375,-0.1875 -0.46875,-0.15625 -0.34375,-0.125 0,-0.78125 0,-0.84375 0,-0.875 0,-0.875 0,-0.875 0,-0.875 0,-0.875 0,-0.625 1.28125,-0.46875 1.46875,-0.53125 1.4375,-0.53125 1.46875,-0.53125 1.4375,-0.53125 1.46875,-0.53125 1.4375,-0.53125 1.0625,-0.375 1.59375,1.84375 1.75,2.125 1.78125,2.09375 1.75,2.125 1.78125,2.09375 1.78125,2.09375 1.75,2.125 1.3125,1.53125 -2.15625,3.75 -2.4375,4.25 -2.46875,4.21875 -2.4375,4.25 -2.4375,4.25 -2.46875,4.21875 -2.4375,4.25 -2.4375,4.21875 -0.1875,0.34375 -0.375,-0.125 L 322.09375,89.875 317.5,88.21875 312.875,86.53125 308.28125,84.875 303.6875,83.1875 299.09375,81.53125 294.5,79.84375 289.90625,78.1875 289.78125,78.5 288.9375,76.125 288,73.53125 287.0625,70.9375 286.125,68.375 285.1875,65.78125 284.25,63.1875 l -0.9375,-2.59375 -0.84375,-2.25 0.875,-0.75 1.1875,-1 1.1875,-1 1.1875,-1 1.1875,-0.96875 1.1875,-1 1.1875,-1 1.1875,-1 -0.0625,-0.0625 0.75,0.125 0.875,0.15625 0.84375,0.15625 0.875,0.15625 0.84375,0.125 0.875,0.15625 0.84375,0.15625 0.84375,0.15625 0,-0.09375 0.25,0.40625 0.25,0.4375 0.21875,0.4375 0.25,0.40625 0.25,0.4375 0.25,0.40625 0.25,0.4375 0.25,0.40625 0.40625,-0.21875 -0.25,-0.4375 L 300.25,53.9375 300,53.53125 299.75,53.09375 299.5,52.6875 299.25,52.25 299,51.84375 l -0.21875,-0.4375 -0.0625,-0.09375 0.0625,-0.09375 L 299,50.8125 l 0.25,-0.4375 0.25,-0.40625 0.25,-0.4375 0.25,-0.4375 0.25,-0.40625 0.21875,-0.4375 0.25,-0.40625 -0.40625,-0.25 -0.25,0.40625 -0.25,0.4375 -0.25,0.4375 -0.25,0.40625 -0.25,0.4375 -0.21875,0.40625 -0.25,0.4375 -0.1875,0.3125 -0.75,-0.125 -0.875,-0.15625 -0.84375,-0.15625 -0.84375,-0.15625 -0.875,-0.15625 -0.84375,-0.15625 -0.875,-0.125 -0.84375,-0.15625 -0.0625,0 0,-0.09375 0,-0.875 0,-0.875 0,-0.84375 0,-0.875 0,-0.875 0,-0.875 0,-0.875 0,-0.75 0.3125,-0.125 0.46875,-0.1875 0.46875,-0.15625 0.46875,-0.1875 0.4375,-0.15625 0.46875,-0.15625 0.46875,-0.1875 0.4375,-0.15625 -0.15625,-0.46875 -0.46875,0.1875 -0.4375,0.15625 -0.46875,0.15625 -0.46875,0.1875 -0.46875,0.15625 -0.4375,0.15625 -0.46875,0.1875 -0.46875,0.15625 -0.125,0.0625 L 291,42.3125 l -0.46875,-0.15625 -0.46875,-0.1875 -0.4375,-0.15625 -0.46875,-0.15625 -0.46875,-0.1875 -0.4375,-0.15625 -0.46875,-0.15625 -0.46875,-0.1875 -0.15625,0.46875 0.4375,0.15625 0.46875,0.1875 0.46875,0.15625 0.46875,0.15625 0.4375,0.1875 0.46875,0.15625 0.46875,0.1875 0.34375,0.125 0,0.75 0,0.875 0,0.875 0,0.875 0,0.875 0,0.84375 0,0.875 0,0.78125 -0.0625,-0.0625 -1.1875,1 -1.1875,1 -1.1875,1 -1.1875,0.96875 -1.1875,1 -1.1875,1 -1.1875,1 -1.1875,1 -0.375,0.3125 -0.5,0 -1.53125,0 -1.5625,0 -1.53125,0 -1.5625,0 -1.53125,0 -1.5625,0 -1.53125,0 -1.5625,0 0,0.09375 -0.5,-0.59375 -0.5625,-0.6875 -0.5625,-0.65625 -0.5625,-0.65625 -0.5625,-0.6875 -0.5625,-0.65625 -0.5625,-0.65625 -0.46875,-0.59375 0.15625,-0.3125 0.25,-0.4375 0.25,-0.40625 0.25,-0.4375 0.25,-0.40625 0.25,-0.4375 0.21875,-0.4375 0.25,-0.40625 -0.40625,-0.25 -0.25,0.4375 -0.25,0.40625 -0.25,0.4375 -0.25,0.40625 -0.25,0.4375 -0.21875,0.40625 -0.25,0.4375 -0.25,0.4375 -0.0312,0.0625 -0.125,0 -0.5,0 -0.46875,0 -0.5,0 -0.5,0 -0.46875,0 -0.5,0 -0.5,0 -0.46875,0 0,0.5 0.46875,0 0.5,0 0.5,0 0.46875,0 0.5,0 0.5,0 0.46875,0 0.4375,0 -0.0312,0.03125 0.5625,0.6875 0.5625,0.65625 0.5625,0.65625 0.5625,0.6875 0.5625,0.65625 0.5625,0.65625 0.5625,0.6875 0.53125,0.65625 0.125,0.15625 -0.0625,0.15625 -0.28125,0.8125 -0.3125,0.8125 -0.28125,0.84375 -0.3125,0.8125 -0.28125,0.8125 -0.3125,0.8125 -0.3125,0.8125 -0.25,0.71875 -0.34375,0 -0.5,0 -0.5,0 -0.46875,0 -0.5,0 -0.5,0 -0.5,0 -0.46875,0 0,0.5 0.46875,0 0.5,0 0.5,0 0.5,0 0.46875,0 0.5,0 0.5,0 0.46875,0 0.0937,0 0.0625,0.09375 0.25,0.4375 0.25,0.40625 0.25,0.4375 0.25,0.40625 0.21875,0.4375 0.25,0.40625 0.25,0.4375 0.25,0.4375 0.40625,-0.25 -0.21875,-0.4375 -0.25,-0.40625 -0.25,-0.4375 -0.25,-0.4375 -0.25,-0.40625 -0.25,-0.4375 -0.21875,-0.40625 -0.21875,-0.375 0.0312,0 0.3125,-0.8125 0.28125,-0.8125 0.3125,-0.84375 0.28125,-0.8125 0.3125,-0.8125 0.28125,-0.8125 0.3125,-0.8125 0.21875,-0.625 1.375,0 1.53125,0 1.5625,0 1.53125,0 1.5625,0 1.53125,0 1.5625,0 1.125,0 0.84375,2.3125 0.9375,2.5625 0.9375,2.59375 0.9375,2.59375 0.9375,2.59375 0.9375,2.5625 0.96875,2.59375 0.9375,2.59375 0.1875,0.53125 -0.375,0.4375 -1.78125,2.125 -1.75,2.09375 -1.78125,2.125 -1.75,2.09375 -1.78125,2.125 -1.78125,2.09375 -1.75,2.125 -1.59375,1.84375 -1.03125,-0.375 -1.46875,-0.53125 -1.4375,-0.53125 -1.46875,-0.53125 -1.46875,-0.53125 -1.4375,-0.53125 -1.46875,-0.53125 -1.28125,-0.46875 0,-0.625 0,-0.875 0,-0.875 0,-0.875 0,-0.875 0,-0.875 0,-0.875 0,-0.84375 -0.0625,0 0.34375,-0.28125 0.375,-0.34375 0.375,-0.3125 0.375,-0.3125 0.375,-0.3125 0.375,-0.3125 0.375,-0.3125 L 265,84 l -0.3125,-0.375 -0.375,0.3125 -0.375,0.3125 -0.375,0.3125 -0.375,0.3125 -0.375,0.3125 -0.375,0.3125 -0.375,0.34375 -0.375,0.3125 -0.0625,0.0625 L 261.5313,86.1875 261.0625,86 260.59375,85.84375 260.125,85.65625 259.6875,85.5 259.21875,85.34375 258.75,85.15625 258.3125,85 l -0.46875,-0.15625 -0.1875,0.4375 0.46875,0.1875 0.46875,0.15625 0.46875,0.1875 0.4375,0.15625 0.46875,0.15625 0.46875,0.1875 0.46875,0.15625 0.3125,0.125 0,0.75 0,0.875 0,0.875 0,0.875 0,0.875 0,0.875 0,0.875 0,0.875 0,0.28125 -0.15625,0.1875 -0.5625,0.6875 -0.5625,0.65625 -0.5625,0.65625 -0.5625,0.6875 -0.5625,0.65625 -0.5625,0.65625 -0.5625,0.6875 -0.5,0.5625 -0.3125,-0.125 -0.46875,-0.15625 L 255.375,98.75 254.90625,98.5625 254.46875,98.40625 254,98.25 l -0.46875,-0.1875 -0.4375,-0.15625 -0.1875,0.46875 0.46875,0.15625 0.46875,0.15625 0.4375,0.1875 0.46875,0.15625 0.46875,0.15625 0.46875,0.1875 0.4375,0.15625 0.46875,0.1875 0.0937,0.03125 0.0312,0.09375 0.0625,0.46875 0.0937,0.5 0.0937,0.46875 0.0937,0.5 0.0625,0.46875 0.0937,0.5 0.0937,0.46875 0.0625,0.46875 0.5,-0.0625 -0.0937,-0.5 -0.0937,-0.46875 -0.0625,-0.5 -0.0937,-0.46875 -0.0937,-0.46875 -0.0625,-0.5 -0.0937,-0.46875 -0.0937,-0.5 0.0625,0.09375 0.5625,-0.6875 0.5625,-0.65625 0.53125,-0.65625 0.5625,-0.6875 0.5625,-0.65625 0.5625,-0.65625 0.5625,-0.6875 0.40625,-0.46875 1.28125,0.46875 1.46875,0.53125 1.4375,0.53125 1.46875,0.5 1.46875,0.53125 1.4375,0.53125 1.46875,0.53125 1.4375,0.53125 0.3125,0.125 0.0625,0.3125 0.25,1.53125 0.28125,1.53125 0.28125,1.5 0.25,1.53125 0.28125,1.53125 0.25,1.53125 0.28125,1.53125 0.25,1.34375 -0.5625,0.3125 -0.75,0.4375 -0.75,0.4375 -0.75,0.4375 -0.78125,0.4375 -0.75,0.4375 -0.75,0.4375 -0.65625,0.34375 -0.28125,-0.21875 -0.375,-0.3125 -0.375,-0.3125 -0.375,-0.3125 -0.375,-0.3125 -0.375,-0.3125 -0.375,-0.3125 -0.375,-0.3125 -0.3125,0.375 0.375,0.3125 0.375,0.3125 0.375,0.3125 0.375,0.3125 0.375,0.3125 0.375,0.3125 0.375,0.3125 0.375,0.3125 0.0937,0.0625 -0.0312,0.125 -0.0937,0.46875 -0.0937,0.5 -0.0625,0.46875 -0.0937,0.5 -0.0937,0.46875 -0.0625,0.46875 -0.0937,0.5 -0.0937,0.46875 0.5,0.0937 0.0625,-0.46875 0.0937,-0.5 0.0937,-0.46875 0.0625,-0.5 0.0937,-0.46875 0.0937,-0.5 0.0937,-0.46875 0.0625,-0.46875 0.0312,0.0937 0.75,-0.4375 0.75,-0.4375 0.75,-0.4375 0.75,-0.4375 0.78125,-0.4375 0.75,-0.4375 0.75,-0.4375 0.75,-0.4375 0.25,-0.15625 0.25,0.0625 0.875,0.15625 0.84375,0.15625 0.875,0.15625 0.84375,0.15625 0.875,0.125 0.84375,0.15625 0.84375,0.15625 0.875,0.15625 0.21875,0.34375 0.25,0.40625 0.25,0.4375 0.25,0.40625 0.25,0.4375 0.21875,0.40625 0.25,0.4375 0.25,0.4375 0.4375,-0.25 -0.25,-0.4375 -0.25,-0.40625 -0.25,-0.4375 -0.25,-0.4375 -0.2187,-0.40615 -0.25,-0.4375 -0.25,-0.40625 -0.25,-0.4375 -0.0625,-0.0937 0.0625,-0.0937 0.25,-0.40625 0.25,-0.4375 0.25,-0.40625 0.21875,-0.4375 0.25,-0.4375 0.25,-0.40625 0.25,-0.4375 0.25,-0.40625 -0.4375,-0.25 -0.25,0.4375 -0.25,0.40625 -0.21875,0.4375 -0.25,0.40625 -0.25,0.4375 -0.25,0.40625 -0.25,0.4375 -0.1875,0.3125 -0.75,-0.125 -0.84375,-0.15625 -0.875,-0.15625 -0.84375,-0.15625 -0.84375,-0.15625 -0.875,-0.15625 -0.84375,-0.125 -0.65625,-0.125 -0.21875,-1.34375 -0.28125,-1.53125 -0.25,-1.53125 -0.28125,-1.5 -0.28125,-1.53125 -0.25,-1.53125 -0.28125,-1.53125 -0.21875,-1.34375 0.125,0.09375 1.75,-2.125 1.78125,-2.09375 1.75,-2.125 1.78125,-2.09375 1.78125,-2.125 1.75,-2.09375 1.78125,-2.09375 1.3125,-1.5625 4.03125,1.46875 4.625,1.6875 4.59375,1.65625 4.59375,1.6875 4.59375,1.65625 4.59375,1.6875 4.59375,1.65625 4.15625,1.53125 -0.5,0.1875 2.96875,8.15625 2.96875,8.1875 2.96875,8.15625 3,8.1875 2.96875,8.15625 2.96875,8.1875 2.96875,8.15625 2.1875,6.0625 -10.4375,8.75 -11.84375,9.9375 -11.84375,9.9375 -11.84375,9.9375 -11.875,9.9375 -11.84375,9.9375 -11.84375,9.9375 L 253.6875,237.75 252.75,238.5625 251.78125,237.75 239.9375,227.8125 228.09375,217.875 216.25,207.9375 204.40625,198 192.5625,188.0625 180.71875,178.125 168.875,168.1875 157.03125,158.25 l -0.625,0.75 0,-7.875 0,-8.71875 0,-8.6875 0,-8.6875 0,-8.71875 0,-8.6875 0,-8.6875 0,-7.6875 3.40625,-1.21875 4.59375,-1.6875 L 169,86.6875 173.59375,85 l 4.59375,-1.65625 4.59375,-1.6875 4.59375,-1.6875 4.0625,-1.46875 1.3125,1.5625 1.75,2.09375 1.78125,2.125 1.78125,2.09375 1.75,2.125 1.78125,2.09375 1.75,2.125 1.78125,2.09375 0.125,-0.09375 -0.21875,1.375 -0.28125,1.5 -0.28125,1.53125 -0.25,1.53125 -0.28125,1.53125 -0.25,1.53125 -0.28125,1.5 -0.28125,1.53125 0.0937,0 -0.65625,0.40625 -0.78125,0.4375 -0.75,0.4375 -0.75,0.4375 -0.75,0.4375 -0.75,0.4375 -0.75,0.4375 -0.65625,0.375 -0.28125,-0.21875 -0.375,-0.3125 -0.375,-0.3125 -0.375,-0.3125 -0.375,-0.34375 -0.375,-0.3125 -0.375,-0.3125 -0.375,-0.3125 -0.34375,0.375 0.40625,0.3125 0.375,0.3125 0.375,0.3125 0.375,0.34375 0.375,0.3125 0.375,0.3125 0.375,0.3125 0.375,0.3125 0.0625,0.0625 0,0.0937 -0.0937,0.5 -0.0937,0.46875 -0.0937,0.5 -0.0625,0.46875 -0.0937,0.46875 -0.0937,0.5 -0.0937,0.46875 -0.0625,0.5 0.46875,0.0625 0.0937,-0.46875 0.0937,-0.46875 0.0625,-0.5 0.0937,-0.46875 0.0937,-0.5 0.0937,-0.46875 0.0625,-0.5 0.0937,-0.46875 0.0312,0.0937 0.75,-0.4375 0.75,-0.4375 0.75,-0.4375 0.75,-0.4375 0.75,-0.4375 0.75,-0.4375 0.75,-0.4375 0.78125,-0.4375 0.15625,-0.0937 0.15625,0.0937 0.75,0.4375 0.75,0.4375 0.75,0.4375 0.75,0.4375 0.75,0.4375 0.78125,0.4375 0.75,0.4375 0.65625,0.375 -0.0625,0.375 -0.0937,0.46875 -0.0625,0.5 -0.0937,0.46875 -0.0937,0.46875 -0.0937,0.5 -0.0625,0.46875 -0.0937,0.5 0.46875,0.0625 0.0937,-0.46875 0.0937,-0.46875 0.0937,-0.5 0.0625,-0.46875 0.0937,-0.5 0.0937,-0.46875 0.0625,-0.5 0.0937,-0.46875 0.0312,-0.15625 0.125,-0.0937 0.375,-0.3125 0.375,-0.3125 0.375,-0.3125 0.375,-0.3125 0.375,-0.34375 0.375,-0.3125 0.375,-0.3125 0.375,-0.3125 -0.3125,-0.375 -0.375,0.3125 -0.375,0.3125 -0.375,0.3125 -0.375,0.34375 -0.375,0.3125 -0.375,0.3125 -0.375,0.3125 -0.28125,0.21875 -0.65625,-0.375 -0.75,-0.4375 -0.78125,-0.4375 -0.75,-0.4375 -0.75,-0.4375 -0.75,-0.4375 -0.75,-0.4375 -0.5625,-0.3125 0.25,-1.34375 0.25,-1.53125 0.28125,-1.53125 0.25,-1.5 0.28125,-1.53125 0.28125,-1.53125 0.25,-1.53125 0.28125,-1.53125 0,-0.09375 0.15625,0 1.53125,0 1.5625,0 1.53125,0 1.5625,0 1.53125,0 1.5625,0 1.53125,0 1.5625,0 0,-0.25 0.0625,0.0625 0.53125,-0.65625 0.5625,-0.65625 0.5625,-0.6875 0.5625,-0.65625 0.5625,-0.65625 0.5625,-0.6875 0.5625,-0.65625 0.5625,-0.65625 0.5,-0.59375 0.3125,0.125 0.46875,0.15625 0.46875,0.15625 0.46875,0.1875 0.4375,0.15625 0.46875,0.1875 0.46875,0.15625 0.46875,0.15625 0.15625,-0.4375 -0.46875,-0.1875 -0.46875,-0.15625 -0.4375,-0.1875 -0.46875,-0.15625 -0.46875,-0.15625 -0.4375,-0.1875 -0.46875,-0.15625 -0.46875,-0.15625 -0.125,-0.0625 -0.0937,-0.125 -0.25,-0.4375 -0.25,-0.40625 -0.25,-0.4375 -0.21875,-0.4375 -0.25,-0.40625 -0.25,-0.4375 -0.25,-0.40625 -0.25,-0.4375 -0.40625,0.25 0.25,0.40625 0.21875,0.4375 0.25,0.4375 0.25,0.40625 0.25,0.4375 0.25,0.40625 0.25,0.4375 0.15625,0.28125 -0.5,0.625 -0.53125,0.65625 -0.5625,0.65625 -0.5625,0.6875 -0.5625,0.65625 -0.5625,0.65625 -0.5625,0.6875 -0.5,0.59375 0,-0.09375 -1.5625,0 -1.53125,0 -1.5625,0 -1.53125,0 -1.5625,0 -1.53125,0 -1.5625,0 -1.40625,0 0.15625,-0.125 -1.78125,-2.09375 -1.78125,-2.09375 -1.75,-2.125 -1.78125,-2.09375 -1.75,-2.125 -1.78125,-2.09375 -1.78125,-2.125 -1.75,-2.09375 -0.5625,-0.65625 0,-0.90625 0,-2.75 0,-2.75 0,-2.75 0,-2.75 0,-2.75 0,-2.75 0,-2.75 0,-2.4375 1.0625,-0.375 1.46875,-0.53125 L 196.5,51.5 l 1.46875,-0.53125 1.4375,-0.53125 1.46875,-0.53125 1.4375,-0.53125 1.28125,-0.46875 0.4375,0.5 0.53125,0.65625 0.5625,0.6875 0.5625,0.65625 0.5625,0.65625 0.5625,0.6875 0.5625,0.65625 0.5,0.59375 -0.1875,0.3125 -0.25,0.40625 -0.25,0.4375 -0.25,0.40625 -0.21875,0.4375 -0.25,0.4375 -0.25,0.40625 -0.25,0.4375 0.4375,0.25 0.25,-0.4375 0.21875,-0.4375 0.25,-0.40625 0.25,-0.4375 0.25,-0.40625 0.25,-0.4375 0.25,-0.40625 0.21875,-0.4375 0.0625,-0.125 0.1875,-0.0625 0.4375,-0.15625 0.46875,-0.1875 0.46875,-0.15625 0.46875,-0.15625 0.4375,-0.1875 0.46875,-0.15625 0.46875,-0.1875 0.4375,-0.15625 -0.15625,-0.46875 -0.46875,0.1875 -0.4375,0.15625 -0.46875,0.15625 -0.46875,0.1875 -0.46875,0.15625 -0.4375,0.1875 -0.46875,0.15625 -0.34375,0.125 -0.5,-0.59375 -0.5625,-0.65625 L 206.90625,51.5 206.375,50.84375 205.8125,50.1875 205.25,49.5 l -0.5625,-0.65625 -0.5625,-0.65625 -0.1875,-0.21875 0,-0.28125 0,-0.875 0,-0.875 0,-0.875 0,-0.84375 0,-0.875 0,-0.875 0,-0.875 0,-0.78125 0.34375,-0.125 0.46875,-0.15625 0.46875,-0.15625 0.4375,-0.1875 0.46875,-0.15625 0.46875,-0.15625 0.4375,-0.1875 0.46875,-0.15625 -0.15625,-0.46875 -0.46875,0.15625 -0.46875,0.1875 -0.4375,0.15625 -0.46875,0.1875 -0.46875,0.15625 -0.46875,0.15625 -0.4375,0.1875 -0.46875,0.15625 -0.15625,0.0625 -0.125,-0.0625 -0.46875,-0.15625 -0.46875,-0.1875 -0.46875,-0.15625 -0.4375,-0.15625 -0.46875,-0.1875 -0.46875,-0.15625 -0.4375,-0.1875 -0.46875,-0.15625 -0.1875,0.46875 0.46875,0.15625 0.46875,0.1875 0.46875,0.15625 0.4375,0.15625 0.46875,0.1875 0.46875,0.15625 0.46875,0.15625 0.3125,0.125 0,0.78125 0,0.875 0,0.875 0,0.875 0,0.84375 0,0.875 0,0.875 0,0.65625 -1.28125,0.46875 -1.4375,0.5 -1.46875,0.53125 -1.4375,0.53125 -1.46875,0.53125 -1.4375,0.53125 -1.46875,0.53125 -1.46875,0.53125 -0.28125,0.09375 -0.25,-0.1875 -1.1875,-1 -1.1875,-1 -1.1875,-1 -1.1875,-0.96875 -1.1875,-1 -1.1875,-1 -1.1875,-1 -1.1875,-1 -0.0625,0.0625 0,-0.78125 0,-0.84375 0,-0.875 0,-0.875 0,-0.875 0,-0.875 0,-0.875 0,-0.875 -0.0625,0 0.34375,-0.28125 0.375,-0.3125 0.375,-0.3125 0.375,-0.3125 0.375,-0.3125 0.375,-0.3125 0.375,-0.3125 0.375,-0.3125 -0.3125,-0.375 -0.375,0.3125 -0.375,0.3125 -0.375,0.3125 -0.375,0.3125 -0.375,0.3125 -0.375,0.3125 -0.375,0.3125 -0.375,0.3125 -0.0937,0.0625 -0.0937,-0.03125 -0.4375,-0.15625 L 180,36.125 l -0.46875,-0.1875 -0.4375,-0.15625 -0.46875,-0.15625 -0.46875,-0.1875 -0.46875,-0.15625 -0.4375,-0.1875 -0.1875,0.46875 0.46875,0.1875 0.46875,0.15625 0.4375,0.15625 0.46875,0.1875 0.46875,0.15625 0.46875,0.15625 0.4375,0.1875 0.34375,0.125 0,0.75 0,0.875 0,0.875 0,0.875 0,0.875 0,0.875 0,0.84375 0,0.875 0,0.1875 -0.15625,0.09375 -0.75,0.4375 -0.75,0.4375 -0.75,0.4375 -0.75,0.4375 -0.78125,0.4375 -0.75,0.4375 -0.75,0.4375 -0.65625,0.375 L 174.25,47.21875 173.875,46.875 173.5,46.5625 173.125,46.25 172.75,45.9375 172.375,45.625 172,45.3125 171.625,45 l -0.3125,0.375 0.375,0.3125 0.375,0.3125 0.375,0.3125 0.375,0.3125 0.375,0.3125 0.375,0.3125 0.375,0.34375 0.375,0.3125 0.125,0.09375 0.0312,0.15625 0.0625,0.46875 0.0937,0.5 0.0937,0.46875 0.0937,0.46875 0.0625,0.5 0.0937,0.46875 0.0937,0.5 0.0625,0.46875 0.5,-0.0625 -0.0937,-0.5 -0.0937,-0.46875 -0.0625,-0.5 L 175.2811,50 l -0.0937,-0.5 -0.0625,-0.46875 -0.0937,-0.5 -0.0625,-0.34375 0.65625,-0.375 0.75,-0.4375 0.75,-0.4375 0.78125,-0.4375 0.75,-0.4375 0.75,-0.4375 0.75,-0.4375 0.5625,-0.3125 1.03125,0.875 1.1875,1 1.1875,1 1.1875,1 1.1875,0.96875 1.1875,1 1.1875,1 1.0625,0.90625 -0.15625,0 0,2.75 0,2.75 0,2.75 0,2.75 0,2.75 0,2.75 0,2.75 0,2.03125 -4.0625,1.46875 -4.59375,1.6875 -4.59375,1.65625 -4.625,1.6875 -4.59375,1.6875 -4.59375,1.65625 -4.59375,1.6875 -4.59375,1.65625 -1.4687,0.53125 -1.46875,-0.53125 L 146,85.4375 141.40625,83.75 l -4.59375,-1.65625 -4.59375,-1.6875 -4.59375,-1.6875 -4.59375,-1.65625 -4.59375,-1.6875 -4.59375,-1.65625 -0.125,0.3125 -0.84375,-2.375 L 111.9375,69.0625 111,66.5 l -0.9375,-2.59375 -0.9375,-2.59375 -0.96875,-2.59375 -0.9375,-2.5625 -0.9375,-2.59375 -0.5,0.1875 0,-0.5 -1.5625,0 -1.5625,0 -1.53125,0 -1.5625,0 -1.53125,0 -1.5625,0 -1.53125,0 -1.5625,0 -1.53125,0 0,0.125 -0.5,-0.625 -0.5625,-0.65625 -0.5625,-0.6875 -0.5625,-0.65625 -0.5625,-0.65625 -0.5625,-0.6875 -0.5625,-0.65625 -0.5625,-0.65625 -0.03125,0.03125 0.0625,-0.4375 0.09375,-0.5 0.09375,-0.46875 0.0625,-0.46875 0.09375,-0.5 0.09375,-0.46875 0.09375,-0.5 0.0625,-0.46875 -0.46875,-0.09375 -0.09375,0.46875 -0.0625,0.5 -0.09375,0.46875 -0.09375,0.5 -0.09375,0.46875 -0.0625,0.5 -0.09375,0.46875 -0.09375,0.5 L 86.84375,48.1875 86.75,48.21875 86.3125,48.375 85.84375,48.5625 85.375,48.71875 84.9375,48.875 84.46875,49.0625 84,49.21875 83.53125,49.375 83.09375,49.5625 83.25,50.03125 83.71875,49.84375 84.15625,49.6875 84.625,49.5 85.09375,49.34375 85.5625,49.1875 86,49 l 0.46875,-0.15625 0.34375,-0.125 0.5,0.59375 0.5625,0.65625 0.5625,0.6875 0.53125,0.65625 0.5625,0.65625 0.5625,0.6875 0.5625,0.65625 0.5625,0.65625 0.0625,0.0625 -0.0625,0.0625 -0.5625,0.65625 -0.5625,0.65625 -0.5625,0.6875 -0.5625,0.65625 -0.53125,0.65625 -0.5625,0.6875 -0.5625,0.65625 -0.5625,0.6875 0.0625,0.03125 -0.46875,0 -0.5,0 -0.46875,0 -0.5,0 -0.5,0 -0.46875,0 -0.5,0 -0.5,0 0,0.46875 0.5,0 0.5,0 0.46875,0 0.5,0 0.5,0 0.46875,0 0.5,0 0.5,0 0.09375,0 0.0625,0.09375 0.21875,0.4375 0.25,0.40625 0.25,0.4375 0.25,0.40625 0.25,0.4375 0.25,0.4375 0.25,0.40625 0.21875,0.4375 0.4375,-0.25 -0.25,-0.4375 -0.25,-0.40625 -0.25,-0.4375 -0.21875,-0.40625 -0.25,-0.4375 -0.25,-0.4375 -0.25,-0.40625 -0.1875,-0.3125 0.5,-0.59375 0.5625,-0.65625 0.5625,-0.6875 0.5625,-0.65625 0.5625,-0.65625 0.5625,-0.6875 0.5625,-0.65625 0.5,-0.625 0,0.125 1.53125,0 1.5625,0 1.53125,0 1.5625,0 1.53125,0 1.5625,0 1.53125,0 1.15625,0 0.84375,2.28125 0.9375,2.59375 0.9375,2.5625 0.9375,2.59375 0.9375,2.59375 0.9375,2.59375 0.9375,2.5625 0.9375,2.59375 0.0625,0.21875 -0.15625,0.09375 -2.40625,1.375 -2.375,1.375 -2.375,1.375 -2.375,1.375 -2.40625,1.375 -2.375,1.375 -2.375,1.375 -2.375,1.40625 0.09375,0.125 L 90.8125,86.1875 89.375,85.65625 87.90625,85.125 86.46875,84.59375 85,84.0625 83.53125,83.53125 82.09375,83 80.625,82.46875 80.59375,82.5625 80.34375,81.84375 80.03125,81 79.75,80.1875 79.4375,79.375 79.15625,78.5625 78.84375,77.75 78.5625,76.9375 78.25,76.09375 l -0.03125,0 0.1875,-0.34375 0.25,-0.4375 0.25,-0.40625 0.25,-0.4375 0.25,-0.4375 0.25,-0.40625 0.21875,-0.4375 0.25,-0.40625 -0.40625,-0.25 -0.25,0.40625 -0.25,0.4375 -0.25,0.4375 -0.25,0.40625 L 78.5,74.65625 78.25,75.0625 78,75.5 l -0.25,0.40625 -0.03125,0.03125 -0.03125,0 L 77.25,75.78125 76.78125,75.59375 76.3125,75.4375 75.84375,75.28125 75.40625,75.09375 74.9375,74.9375 74.46875,74.78125 74,74.59375 l -0.15625,0.46875 0.46875,0.15625 0.46875,0.1875 0.4375,0.15625 0.46875,0.15625 0.46875,0.1875 0.4375,0.15625 0.46875,0.15625 0.4375,0.15625 -0.0625,0.03125 0.28125,0.8125 0.3125,0.8125 0.28125,0.8125 0.3125,0.84375 0.28125,0.8125 0.3125,0.8125 0.3125,0.8125 0.28125,0.8125 0.0625,0.15625 -0.125,0.15625 -0.5625,0.6875 -0.5625,0.65625 -0.53125,0.65625 -0.5625,0.6875 -0.5625,0.65625 -0.5625,0.65625 -0.5625,0.6875 -0.5625,0.65625 0.03125,0.03125 -0.4375,0 -0.46875,0 -0.5,0 -0.5,0 -0.5,0 -0.46875,0 -0.5,0 -0.5,0 0,0.5 0.5,0 0.5,0 0.46875,0 0.5,0 0.5,0 0.5,0 0.46875,0 0.5,0 0.09375,0 0.0625,0.09375 0.25,0.40625 0.25,0.4375 0.21875,0.4375 0.25,0.40625 0.25,0.4375 0.25,0.40625 0.25,0.4375 0.25,0.40625 0.40625,-0.21875 -0.25,-0.4375 -0.25,-0.4375 -0.21875,-0.40625 -0.25,-0.4375 -0.25,-0.40625 -0.25,-0.4375 -0.25,-0.40625 L 76,89.09375 76.5,88.5 77.0625,87.8125 77.625,87.15625 78.1875,86.5 78.75,85.8125 79.3125,85.15625 79.875,84.5 80.28125,84 81.5625,84.46875 83.03125,85 l 1.4375,0.53125 1.46875,0.53125 1.4375,0.53125 1.46875,0.53125 1.4375,0.53125 1.46875,0.5 1.4375,0.53125 0.0625,-0.125 0.1875,0.34375 2.375,-1.375 2.375,-1.375 2.375,-1.375 2.40625,-1.375 2.375,-1.375 2.375,-1.375 2.375,-1.375 2.15625,-1.21875 -0.0937,0.25 4.59375,1.65625 4.59375,1.6875 4.59375,1.6875 4.59375,1.65625 4.625,1.6875 4.59375,1.65625 4.59375,1.6875 3.375,1.21875 0,7.6875 0,8.6875 0,8.6875 0,8.71875 0,8.6875 0,8.6875 0,8.71875 0,8.6875 0,1.84375 -1.59375,0.90625 -7.53125,4.34375 -7.53125,4.375 -7.53125,4.34375 -7.53125,4.34375 -7.53125,4.34375 -7.53125,4.34375 L 93.4063,193 l -7.53125,4.34375 0.28125,0.5 L 82,196.3125 l -4.59375,-1.65625 -4.625,-1.6875 L 68.1875,191.3125 63.59375,189.625 59,187.9375 l -4.59375,-1.65625 -4.59375,-1.6875 -0.125,0.3125 -0.84375,-2.34375 -0.9375,-2.59375 -0.9375,-2.59375 -0.9375,-2.59375 -0.9375,-2.5625 -0.9375,-2.59375 -0.9375,-2.59375 -0.96875,-2.59375 -0.125,0.0625 0.6875,-1.1875 0.75,-1.34375 0.78125,-1.34375 0.78125,-1.34375 0.78125,-1.34375 0.78125,-1.34375 0.75,-1.34375 0.6875,-1.1875 0.625,0.125 0.875,0.15625 0.84375,0.15625 0.875,0.125 0.84375,0.15625 0.875,0.15625 0.84375,0.15625 0.75,0.125 0.0625,0.375 0.09375,0.46875 0.09375,0.46875 0.0625,0.5 0.09375,0.46875 0.09375,0.5 0.09375,0.46875 0.0625,0.5 0.5,-0.0937 -0.09375,-0.5 -0.09375,-0.46875 -0.0625,-0.46875 -0.09375,-0.5 -0.09375,-0.46875 -0.09375,-0.5 -0.0625,-0.4688 -0.09375,-0.5 -0.03125,-0.125 0.09375,-0.15625 0.21875,-0.40625 0.25,-0.4375 0.25,-0.4375 0.25,-0.40625 0.25,-0.4375 0.25,-0.40625 0.21875,-0.4375 0.25,-0.40625 -0.40625,-0.25 -0.25,0.40625 -0.25,0.4375 -0.25,0.40625 -0.25,0.4375 -0.25,0.4375 -0.21875,0.40625 -0.25,0.4375 -0.1875,0.28125 -0.75,-0.125 -0.875,-0.125 -0.84375,-0.15625 -0.875,-0.15625 -0.84375,-0.15625 -0.84375,-0.15625 -0.875,-0.15625 -0.84375,-0.125 -0.28125,-0.0625 -0.1875,-0.21875 -0.5625,-0.65625 -0.5625,-0.65625 -0.53125,-0.6875 -0.5625,-0.65625 -0.5625,-0.65625 -0.5625,-0.6875 -0.5625,-0.65625 -0.5,-0.59375 0.1875,-0.3125 0.25,-0.4375 0.25,-0.40625 0.21875,-0.4375 0.25,-0.40625 0.25,-0.4375 0.25,-0.40625 0.25,-0.4375 -0.4375,-0.25 -0.25,0.4375 -0.21875,0.40625 -0.25,0.4375 -0.25,0.40625 -0.25,0.4375 -0.25,0.4375 -0.25,0.40625 -0.25,0.4375 -0.21875,0.40625 0.125,0.0937 -0.125,0.0937 0.5625,0.6875 0.5625,0.65625 0.53125,0.65625 0.5625,0.6875 0.5625,0.65625 0.5625,0.65625 0.5625,0.6875 0.40625,0.5 -0.6875,1.15625 -0.75,1.34375 -0.78125,1.34375 L 43.78125,158.5 43,159.84375 42.25,161.1875 41.46875,162.53125 40.6875,163.875 40.625,163.9687 40.5,163.9375 39.0625,163.40625 37.59375,162.875 36.15625,162.34375 34.6875,161.8125 33.25,161.28125 31.78125,160.75 30.3125,160.21875 28.875,159.6875 l -0.03125,0.0937 -0.28125,-0.75 -0.28125,-0.8125 -0.3125,-0.8125 -0.28125,-0.8125 -0.3125,-0.8125 -0.28125,-0.8125 -0.3125,-0.84375 -0.25,-0.71875 0.25,-0.21875 0.375,-0.3125 0.375,-0.3125 0.375,-0.3125 0.40625,-0.3125 0.375,-0.34375 0.375,-0.3125 0.375,-0.3125 -0.34375,-0.375 -0.375,0.3125 -0.375,0.3125 -0.375,0.34375 -0.375,0.3125 -0.375,0.3125 -0.375,0.3125 -0.375,0.3125 -0.375,0.3125 -0.0625,0.0625 -0.09375,-0.0312 L 25.46875,153 25,152.8125 l -0.4375,-0.15625 -0.46875,-0.1875 -0.46875,-0.15625 -0.46875,-0.15625 -0.4375,-0.1875 -0.46875,-0.15625 -0.15625,0.46875 0.4375,0.15625 0.46875,0.15625 0.46875,0.1875 0.4375,0.15625 0.46875,0.1875 0.46875,0.15625 0.46875,0.15625 0.40625,0.1875 -0.0625,0 0.3125,0.8125 0.28125,0.8125 0.3125,0.8125 0.28125,0.8125 0.3125,0.84375 0.3125,0.8125 0.28125,0.8125 0.3125,0.8125 0.0625,0.15625 -0.125,0.15625 -0.5625,0.6875 -0.5625,0.65625 -0.5625,0.65625 -0.5625,0.6875 -0.5625,0.65625 -0.5625,0.65625 -0.5625,0.6875 -0.46875,0.59375 -0.34375,-0.125 -0.46875,-0.1875 -0.46875,-0.15625 -0.4375,-0.1875 -0.46875,-0.15625 -0.46875,-0.15625 -0.46875,-0.1875 -0.4375,-0.15625 -0.1875,0.46875 0.46875,0.15625 0.46875,0.15625 0.46875,0.1875 0.4375,0.15625 0.46875,0.1875 0.46875,0.15625 0.4375,0.15625 0.46875,0.1875 0.09375,0.0312 0.03125,0.0937 0.09375,0.46875 0.0625,0.5 0.09375,0.46875 0.09375,0.5 0.0625,0.46875 0.09375,0.5 0.09375,0.46875 0.09375,0.46875 0.46875,-0.0625 -0.09375,-0.5 -0.0625,-0.46875 -0.09375,-0.5 -0.09375,-0.46875 -0.09375,-0.46875 -0.0625,-0.5 -0.09375,-0.46875 -0.09375,-0.46875 0.0625,0.0625 0.5625,-0.65625 0.5625,-0.6875 0.5625,-0.65625 0.5625,-0.65625 0.53125,-0.6875 0.5625,-0.65625 0.5625,-0.6875 0.40625,-0.46875 1.3125,0.46875 1.4375,0.53125 1.46875,0.53125 1.4375,0.53125 1.46875,0.5 1.4375,0.53125 1.46875,0.53125 1.34375,0.5 -0.1875,0.0625 0.9375,2.5625 0.9375,2.59375 0.9375,2.59375 0.9375,2.59375 0.9375,2.5625 0.9375,2.59375 0.96875,2.59375 0.9375,2.59375 0.0625,0.1875 -0.1875,0.125 -2.375,1.375 -2.40625,1.375 -2.375,1.375 -2.375,1.375 -2.375,1.375 -2.40625,1.375 -2.375,1.375 -2.09375,1.21875 -0.875,-0.75 -1.1875,-0.96875 -1.1875,-1 -1.1875,-1 -1.1875,-1 -1.1875,-1 -1.1875,-1 -1.0625,-0.84375 0.25,-0.625 0.28125,-0.8125 0.3125,-0.8125 0.28125,-0.84375 0.3125,-0.8125 0.28125,-0.8125 0.3125,-0.8125 0.28125,-0.8125 L 21.5,183.3125 21.9375,183.15625 22.40625,183 22.875,182.84375 23.3125,182.65625 23.78125,182.5 24.25,182.3125 24.6875,182.15625 25.15625,182 25,181.53125 l -0.46875,0.15625 -0.46875,0.1875 -0.4375,0.15625 -0.46875,0.15625 -0.46875,0.1875 -0.46875,0.15625 -0.4375,0.1875 -0.46875,0.15625 -0.03125,0 L 21.25,182.84375 21,182.4375 20.78125,182 l -0.25,-0.40625 -0.25,-0.4375 -0.25,-0.4375 -0.25,-0.40625 -0.25,-0.4375 -0.21875,-0.40625 -0.4375,0.25 0.25,0.40625 0.25,0.4375 0.21875,0.40625 0.25,0.4375 0.25,0.40625 0.25,0.4375 0.25,0.4375 0.21875,0.375 -0.0625,-0.0312 -0.28125,0.8125 -0.3125,0.84375 -0.28125,0.8125 -0.3125,0.8125 -0.28125,0.8125 -0.3125,0.8125 -0.28125,0.8125 -0.3125,0.84375 -0.0625,0.15625 -0.1875,0.0312 -0.84375,0.15625 -0.875,0.15625 -0.84375,0.15625 -0.875,0.15625 -0.84375,0.125 L 13,190.6875 12.125,190.84375 11.28125,191 l 0.03125,0.0937 -0.375,-0.3125 -0.375,-0.34375 -0.375,-0.3125 -0.375,-0.3125 -0.375,-0.3125 -0.375,-0.3125 -0.375,-0.3125 -0.375,-0.3125 -0.3125,0.375 0.375,0.3125 0.375,0.3125 0.375,0.3125 0.375,0.3125 0.375,0.3125 0.375,0.3125 0.375,0.34375 0.375,0.3125 0.03125,0.0312 -0.03125,0.0312 -0.21875,0.40625 -0.25,0.4375 -0.25,0.40625 -0.25,0.4375 -0.25,0.40625 -0.25,0.4375 -0.21875,0.4375 -0.25,0.40625 0.40625,0.25 0.25,-0.4375 0.25,-0.40625 0.25,-0.4375 0.25,-0.40625 0.21875,-0.4375 0.25,-0.4375 0.25,-0.40625 0.21875,-0.40625 0.03125,0.0625 0.84375,-0.125 0.84375,-0.15625 0.875,-0.15625 0.84375,-0.15625 0.875,-0.15625 0.84375,-0.15625 0.875,-0.15625 0.71875,-0.0937 -0.03125,0.0312 1.1875,1 1.1875,1 1.1875,1 1.1875,1 1.1875,1 1.1875,1 1.1875,0.96875 1.1875,1 0.25,0.21875 -0.0625,0.3125 -0.25,1.53125 -0.28125,1.53125 -0.28125,1.5314 -0.25,1.5 -0.28125,1.53125 -0.25,1.53125 -0.28125,1.53125 -0.28125,1.5 0.15625,0.0312 -0.71875,0.40625 -0.78125,0.4375 -0.75,0.40625 -0.75,0.4375 -0.75,0.4375 -0.75,0.4375 -0.75,0.4375 -0.75,0.4375 0.0625,0.0625 -0.46875,-0.15625 -0.4375,-0.1875 -0.46875,-0.15625 -0.46875,-0.15625 -0.46875,-0.1875 -0.4375,-0.15625 -0.46875,-0.15625 -0.46875,-0.1875 -0.15625,0.46875 0.46875,0.15625 0.4375,0.1875 0.46875,0.15625 0.46875,0.15625 0.4375,0.1875 0.46875,0.15625 0.46875,0.1875 0.46875,0.15625 0.03125,0 0,0.0625 -0.09375,0.46875 -0.09375,0.46875 -0.09375,0.5 -0.0625,0.46875 -0.09375,0.5 -0.09375,0.46875 -0.0625,0.5 -0.09375,0.46875 0.46875,0.0937 0.09375,-0.5 0.09375,-0.46875 0.0625,-0.5 0.09375,-0.46875 0.09375,-0.46875 0.09375,-0.5 0.0625,-0.46875 0.09375,-0.5 0.03125,0.0937 0.75,-0.4375 0.75,-0.4375 0.75,-0.4375 0.75,-0.40625 0.75,-0.4375 0.75,-0.4375 0.78125,-0.4375 0.75,-0.4375 0.15625,-0.0937 0.15625,0.0937 0.75,0.4375 0.75,0.4375 0.75,0.4375 0.75,0.4375 0.75,0.40625 0.78125,0.4375 0.75,0.4375 0.75,0.4375 0.09375,0.40625 0.09375,0.46875 0.09375,0.5 0.0625,0.46875 0.09375,0.46875 0.09375,0.5 0.09375,0.46875 0.0625,0.5 0.5,-0.0937 -0.09375,-0.46875 -0.09375,-0.5 -0.0625,-0.46875 -0.09375,-0.5 -0.09375,-0.46875 -0.09375,-0.5 -0.0625,-0.46875 -0.09375,-0.46875 0,-0.0625 0.03125,0 0.46875,-0.15625 0.4375,-0.1875 0.46875,-0.15625 0.46875,-0.1875 0.46875,-0.15625 0.4375,-0.15625 0.46875,-0.1875 0.46875,-0.15625 -0.1875,-0.46875 -0.4375,0.1875 -0.46875,0.15625 -0.46875,0.15625 -0.46875,0.1875 -0.4375,0.15625 -0.46875,0.15625 -0.46875,0.1875 -0.375,0.125 0,-0.0312 -0.75,-0.4375 -0.75,-0.4375 -0.78125,-0.4375 -0.75,-0.4375 -0.75,-0.4375 -0.75,-0.40625 -0.75,-0.4375 -0.5625,-0.3125 0.25,-1.375 0.25,-1.5 L 28,207.125 l 0.28125,-1.53125 0.25,-1.53125 0.28125,-1.53125 0.25,-1.5 0.25,-1.40625 0.09375,0.15625 2.375,-1.375 2.375,-1.375 2.40625,-1.375 2.375,-1.375 2.375,-1.375 2.375,-1.375 2.40625,-1.375 2.125,-1.21875 -0.09375,0.25 4.59375,1.6875 4.625,1.6875 4.59375,1.65625 4.59375,1.6875 4.59375,1.65625 4.59375,1.6875 4.59375,1.65625 4.59375,1.6875 0.375,0.125 -0.0625,0.40625 -0.84375,4.8125 -0.875,4.8125 -0.84375,4.8125 -0.84375,4.8125 -0.84375,4.8125 -0.84375,4.84375 -0.84375,4.8125 -0.875,4.8125 0.28125,0.0625 -2.125,1.21875 -2.375,1.375 -2.375,1.375 -2.40625,1.375 -2.375,1.40625 -2.375,1.375 -2.40625,1.375 -2.09375,1.21875 -0.875,-0.75 -1.1875,-1 -1.1875,-1 -1.1875,-1 -1.1875,-0.96875 -1.1875,-1 -1.15625,-1 -1.1875,-1 -0.0625,0.0937 0,-0.8125 0,-0.875 0,-0.84375 0,-0.875 0,-0.875 0,-0.875 0,-0.875 0,-0.875 -0.0625,0 0.34375,-0.28125 0.375,-0.3125 0.375,-0.3125 0.375,-0.3125 0.375,-0.3125 0.375,-0.3125 0.375,-0.3125 0.375,-0.3125 -0.3125,-0.375 -0.375,0.3125 -0.375,0.3125 -0.375,0.3125 -0.375,0.3125 -0.375,0.3125 -0.375,0.3125 -0.375,0.3125 -0.375,0.3125 -0.03125,0.0312 -0.03125,-0.0312 -0.375,-0.3125 -0.375,-0.3125 -0.375,-0.3125 -0.375,-0.3125 -0.375,-0.3125 -0.375,-0.3125 -0.375,-0.3125 -0.375,-0.3125 -0.3125,0.375 0.375,0.3125 0.375,0.3125 0.375,0.3125 0.375,0.3125 0.375,0.3125 0.375,0.3125 0.375,0.3125 0.34375,0.28125 -0.0625,0 0,0.875 0,0.875 0,0.875 0,0.875 0,0.875 0,0.84375 0,0.875 0,0.875 0,0.0937 -0.0625,0 -0.875,0.15625 -0.84375,0.125 -0.875,0.15625 -0.84375,0.15625 -0.875,0.15625 -0.84375,0.15625 -0.875,0.15625 -0.75,0.125 -0.1875,-0.3125 -0.21875,-0.4375 -0.25,-0.40625 -0.25,-0.4375 -0.25,-0.40625 -0.25,-0.4375 -0.25,-0.40625 -0.21875,-0.4375 -0.4375,0.25 0.25,0.40625 0.25,0.4375 0.25,0.40625 0.21875,0.4375 0.25,0.4375 0.25,0.40625 0.25,0.4375 0.25,0.40625 0.0625,0.125 -0.03125,0.1875 -0.0625,0.46875 -0.09375,0.46875 -0.09375,0.5 -0.09375,0.46875 -0.0625,0.5 -0.09375,0.46875 -0.09375,0.5 -0.0625,0.46875 0.46875,0.0937 0.09375,-0.5 0.0625,-0.46875 0.09375,-0.5 0.09375,-0.46875 0.09375,-0.46875 0.0625,-0.5 0.09375,-0.46875 0.0625,-0.375 0.75,-0.125 0.875,-0.15625 0.84375,-0.15625 0.875,-0.125 0.84375,-0.15625 0.875,-0.15625 0.84375,-0.15625 0.78125,-0.15625 -0.0625,0.0937 1.1875,1 1.1875,1 1.1875,1 1.1875,0.96875 1.15625,1 1.1875,1 1.1875,1 1.1875,1 0.40625,0.34375 0.0625,0.4375 0.28125,1.53125 0.25,1.53125 0.28125,1.53125 0.28125,1.53125 0.25,1.5 0.28125,1.53125 0.25,1.53125 0.28125,1.53125 0.09375,0 -0.5,0.5625 -0.5625,0.6875 -0.5625,0.65625 -0.5625,0.65625 -0.5625,0.6875 -0.5625,0.65625 -0.5625,0.65625 -0.5,0.59375 -0.3125,-0.125 -0.46875,-0.15625 -0.46875,-0.15625 -0.4375,-0.1875 -0.46875,-0.15625 -0.46875,-0.15625 -0.46875,-0.1875 -0.4375,-0.15625 -0.1875,0.46875 0.46875,0.15625 0.46875,0.15625 0.4375,0.1875 0.46875,0.15625 0.46875,0.15625 0.46875,0.1875 0.4375,0.15625 0.46875,0.15625 0.09375,0.0312 0.03125,0.125 0.0625,0.46875 0.09375,0.5 0.09375,0.46875 0.09375,0.5 0.0625,0.46875 0.09375,0.46875 0.09375,0.5 0.09375,0.46875 0.46875,-0.0625 -0.09375,-0.5 -0.0625,-0.46875 -0.09375,-0.5 -0.09375,-0.46875 -0.09375,-0.5 -0.0625,-0.46875 -0.09375,-0.46875 -0.09375,-0.4685 0.0625,0.0625 L 59,272 l 0.5625,-0.65625 0.53125,-0.65625 0.5625,-0.6875 0.5625,-0.65625 0.5625,-0.65625 0.5625,-0.6875 0.5625,-0.65625 0.0625,-0.0625 0.03125,0.0312 0.78125,0.4375 0.75,0.4375 0.75,0.4375 0.75,0.4375 0.75,0.4375 0.75,0.4375 0.75,0.4375 0.65625,0.40625 -0.03125,0.34375 -0.09375,0.46875 -0.09375,0.46875 -0.09375,0.5 -0.0625,0.46875 -0.09375,0.5 L 68.375,274 l -0.0625,0.5 0.46875,0.0625 0.09375,-0.46875 0.0625,-0.5 0.09375,-0.46875 0.09375,-0.46875 0.09375,-0.5 0.0625,-0.46875 0.09375,-0.5 0.09375,-0.46875 0.03125,-0.1875 0.09375,-0.0625 0.375,-0.3125 0.375,-0.3125 0.375,-0.3125 0.375,-0.34375 0.40625,-0.3125 0.375,-0.3125 0.375,-0.3125 0.375,-0.3125 -0.34375,-0.375 -0.375,0.3125 -0.375,0.3125 -0.375,0.3125 -0.375,0.3125 -0.375,0.34375 -0.375,0.3125 -0.375,0.3125 L 69.375,270 l -0.65625,-0.375 -0.75,-0.4375 -0.75,-0.4375 -0.75,-0.4375 -0.75,-0.4375 -0.75,-0.4375 L 64.1875,267 l -0.65625,-0.40625 0.09375,0 -0.28125,-1.53125 -0.25,-1.5 -0.28125,-1.53125 -0.28125,-1.53125 -0.25,-1.53125 L 62,257.4375 l -0.25,-1.5 -0.21875,-1.125 2.09375,-1.21875 2.40625,-1.375 2.375,-1.375 2.375,-1.375 2.40625,-1.375 2.375,-1.375 2.375,-1.375 2.375,-1.375 0.5,-0.28125 0.53125,0.28125 2.375,1.375 2.375,1.375 2.375,1.375 2.40625,1.375 2.375,1.375 2.375,1.375 2.375,1.375 2.125,1.21875 -0.21875,1.125 -0.25,1.5 -0.28125,1.53125 -0.25,1.53125 -0.28125,1.53125 -0.28125,1.53125 -0.25,1.5 -0.25,1.34375 -0.625,0.125 -0.84375,0.15625 -0.875,0.15625 -0.84375,0.125 -0.875,0.15625 -0.84375,0.15625 -0.875,0.15625 -0.75,0.125 -0.1875,-0.3125 -0.21875,-0.40625 -0.25,-0.4375 -0.25,-0.40625 -0.4375,0.21875 0.25,0.4375 0.25,0.40625 0.25,0.4375 0.25,0.4375 0.0625,0.125 -0.03125,0.15625 -0.0625,0.46875 -0.09375,0.5 -0.09375,0.46875 -0.09375,0.5 -0.0625,0.46875 -0.09375,0.46875 -0.09375,0.5 -0.09375,0.46875 0.5,0.0937 0.09375,-0.46875 0.0625,-0.5 0.09375,-0.46875 0.09375,-0.5 0.09375,-0.46875 0.0625,-0.5 0.09375,-0.46875 0.0625,-0.375 0.75,-0.125 0.875,-0.125 0.84375,-0.15625 0.875,-0.15625 0.84375,-0.15625 0.84375,-0.15625 0.875,-0.15625 0.84375,-0.125 0.3125,-0.0625 0.21875,0.125 0.75,0.4375 0.75,0.4375 0.75,0.4375 0.75,0.4375 0.75,0.4375 0.75,0.4375 0.78125,0.4375 0.65625,0.375 -0.0625,0.375 -0.0937,0.46875 -0.0937,0.46875 -0.0625,0.5 -0.0937,0.46875 -0.0937,0.5 -0.0625,0.46875 -0.0937,0.5 0.46875,0.0625 0.0937,-0.46875 0.0937,-0.5 0.0625,-0.46875 0.0937,-0.46875 0.0937,-0.5 0.0937,-0.46875 0.0625,-0.5 0.0937,-0.46875 0.0312,-0.15625 0.125,-0.0937 0.375,-0.3125 0.375,-0.3125 0.375,-0.3125 0.375,-0.34375 0.375,-0.3125 0.375,-0.3125 0.375,-0.3125 0.375,-0.3125 -0.3125,-0.375 -0.375,0.3125 -0.375,0.3125 -0.375,0.3125 -0.375,0.3125 -0.375,0.34375 -0.375,0.3125 -0.375,0.3125 -0.28125,0.21875 -0.65625,-0.375 -0.78125,-0.4375 -0.75,-0.4375 -0.75,-0.4375 -0.75,-0.4375 -0.75,-0.4375 -0.75,-0.4375 -0.5625,-0.3125 0.25,-1.34375 0.25,-1.53125 0.28125,-1.53125 0.25,-1.5 0.28125,-1.53125 0.28125,-1.53125 0.25,-1.53125 0.28125,-1.53125 0.0625,-0.3125 0.28125,-0.0937 1.46875,-0.53125 1.46875,-0.53125 1.4375,-0.53125 1.46875,-0.53125 1.4375,-0.53125 1.46875,-0.53125 1.4375,-0.53125 1.3125,-0.46875 0.40625,0.5 0.53125,0.65625 0.5625,0.65625 0.5625,0.6875 0.5625,0.65625 0.5625,0.65625 0.5625,0.6875 0.5625,0.65625 0.0312,-0.0625 -0.0625,0.46875 -0.0937,0.46875 -0.0937,0.5 -0.0625,0.46875 -0.0937,0.5 -0.0937,0.46875 -0.0937,0.5 -0.0626,0.4687 0.46875,0.0937 0.0937,-0.5 0.0937,-0.46875 0.0625,-0.5 0.0937,-0.46875 0.0937,-0.46875 0.0625,-0.5 0.0937,-0.46875 0.0937,-0.5 0.0312,-0.0937 0.0937,-0.0312 0.4375,-0.1875 0.46875,-0.15625 0.46875,-0.15625 0.46875,-0.1875 0.4375,-0.15625 0.46875,-0.15625 0.46875,-0.1875 0.4375,-0.15625 -0.15625,-0.46875 -0.46875,0.1875 -0.4375,0.15625 -0.46875,0.15625 -0.46875,0.1875 -0.46875,0.15625 -0.4375,0.15625 -0.46875,0.1875 -0.34375,0.125 -0.5,-0.59375 -0.5625,-0.65625 -0.5625,-0.6875 L 116.3125,252 115.75,251.3125 115.1875,250.65625 114.625,250 l -0.5625,-0.6875 -0.125,-0.125 L 114,249 l 0.3125,-0.8125 0.28125,-0.8125 0.3125,-0.8125 0.28125,-0.8125 0.3125,-0.84375 0.28125,-0.8125 0.3125,-0.8125 0.28125,-0.8125 -0.0625,-0.0312 0.4375,-0.125 0.46875,-0.1875 0.46875,-0.15625 0.4375,-0.1875 0.46875,-0.15625 0.46875,-0.15625 0.4375,-0.1875 0.46875,-0.15625 -0.15625,-0.46875 -0.46875,0.1875 -0.46875,0.1562 -0.4375,0.15625 -0.46875,0.1875 L 117.5,241.5 l -0.46875,0.15625 -0.4375,0.1875 L 116.125,242 l -0.0937,0.0312 -0.0937,-0.0625 -0.375,-0.3125 -0.375,-0.3125 -0.375,-0.3125 -0.375,-0.3125 -0.375,-0.3125 -0.375,-0.3125 -0.375,-0.3125 -0.375,-0.3125 -0.3125,0.375 0.375,0.3125 0.375,0.3125 0.375,0.3125 0.375,0.3125 0.375,0.3125 0.375,0.3125 0.375,0.3125 0.28125,0.21875 -0.25,0.75 -0.3125,0.8125 -0.28125,0.8125 -0.3125,0.8125 -0.28125,0.8125 -0.3125,0.84375 -0.28125,0.8125 -0.28125,0.71875 -0.0312,-0.0937 -1.46875,0.53125 -1.4375,0.53125 -1.46875,0.53125 -1.4375,0.53125 -1.46875,0.53125 -1.4375,0.53125 L 103,252.25 l -1.28125,0.46875 0.0625,-0.125 -2.40625,-1.375 -2.375,-1.375 -2.375,-1.375 -2.375,-1.40625 -2.40625,-1.375 -2.375,-1.375 -2.375,-1.375 -1.75,-1 0.75,-4.25 0.84375,-4.8125 0.84375,-4.8125 0.84375,-4.84375 0.84375,-4.8125 0.875,-4.8125 0.84375,-4.8125 0.75,-4.34375 0.28125,0.46875 7.53125,-4.375 7.53125,-4.34375 7.53125,-4.34375 7.53125,-4.34375 7.53125,-4.34375 7.53125,-4.34375 7.53125,-4.375 5.53125,-3.1875 10.46875,8.78125 11.84375,9.9375 11.84375,9.9375 11.84375,9.9375 11.84375,9.9375 11.84375,9.9375 11.84375,9.9375 10.6875,8.96875 -1.6875,0 0,27.5 0,27.5 0,27.46875 0,27.5 0,27.5 0,27.46875 0,27.5 0,27.46875 0,27.5 27.5,0 0,-27.5 0,-27.46875 0,-27.5 0,-27.46875 0,-27.5 0,-27.5 0,-27.46875 0,-27.5 0,-27.5 -1.71875,0 10.6875,-8.96875 11.875,-9.9375 11.84375,-9.9375 11.84375,-9.9375 11.84375,-9.9375 11.84375,-9.9375 11.84375,-9.9375 10.46875,-8.78125 5.53125,3.1875 7.53125,4.375 7.53125,4.34375 7.53125,4.34375 7.53125,4.34375 7.53125,4.34375 7.53125,4.34375 6.65625,3.875 -0.65625,3.53125 -0.84375,4.8125 -0.84375,4.8125 -0.84375,4.8125 -0.84375,4.8125 -0.84375,4.84375 -0.875,4.8125 -0.75,4.25 -1.96875,0.34375 -2.71875,0.46875 -2.71875,0.5 -2.71875,0.46875 -2.6875,0.46875 -2.71875,0.5 -2.71875,0.46875 -2.40625,0.40625 -0.5625,-0.96875 -0.75,-1.34375 -0.78125,-1.34375 -0.78125,-1.34375 -0.78125,-1.34375 -0.75,-1.34375 -0.78125,-1.34375 -0.78125,-1.34375 -0.15625,0.0937 0,-0.0312 -0.875,-0.15625 -0.84375,-0.15625 -0.875,-0.15625 -0.84375,-0.15625 -0.84375,-0.15625 -0.875,-0.15625 -0.84375,-0.125 -0.875,-0.15625 -0.75,-0.125 -0.0625,-0.375 -0.0937,-0.46875 -0.0625,-0.5 -0.0937,-0.46875 -0.0937,-0.5 -0.0937,-0.46875 -0.0625,-0.46875 -0.0937,-0.5 -0.46875,0.0937 0.0625,0.46875 0.0937,0.5 0.0937,0.46875 0.0625,0.5 0.0937,0.46875 0.0937,0.46875 0.0937,0.5 0.0625,0.46875 0.0312,0.1875 -0.0625,0.125 -0.25,0.40625 -0.25,0.4375 -0.25,0.40625 -0.25,0.4375 -0.25,0.40625 -0.21875,0.4375 -0.25,0.4375 -0.25,0.40625 0.4375,0.25 0.21875,-0.4375 0.25,-0.40625 0.25,-0.4375 0.25,-0.40625 0.25,-0.4375 0.25,-0.40625 0.21875,-0.4375 0.1875,-0.3125 0.75,0.125 0.875,0.15625 0.84375,0.15625 0.875,0.15625 0.84375,0.15625 0.875,0.125 0.84375,0.15625 0.75,0.15625 -0.0625,0.0312 0.78125,1.34375 0.78125,1.34375 0.75,1.34375 0.78125,1.34375 0.78125,1.34375 0.78125,1.34375 0.78125,1.3125 0.75,1.34375 0.25,0.4375 -0.0937,0.5 -0.25,1.5 -0.28125,1.53125 -0.25,1.53125 -0.28125,1.53125 -0.28125,1.5 -0.25,1.53125 -0.28125,1.53125 -0.25,1.53125 0.0937,0 -0.6875,0.40625 -0.75,0.4375 -0.75,0.4375 -0.78125,0.4375 -0.75,0.4375 -0.75,0.4375 -0.75,0.4375 -0.65625,0.34375 -0.28125,-0.21875 -0.375,-0.3125 -0.375,-0.3125 -0.375,-0.3125 -0.375,-0.3125 -0.375,-0.3125 -0.375,-0.3125 -0.375,-0.3125 -0.3125,0.375 0.375,0.3125 0.375,0.3125 0.375,0.3125 0.375,0.3125 0.375,0.3125 0.375,0.3125 0.375,0.3125 0.375,0.3125 0.125,0.125 0.0312,0.15625 0.0625,0.46875 0.0937,0.46875 0.0937,0.5 0.0625,0.46875 0.0937,0.5 0.0937,0.46875 0.0937,0.5 0.0625,0.46875 0.5,-0.0937 -0.0937,-0.46875 -0.0937,-0.5 -0.0625,-0.46875 -0.0937,-0.46875 -0.0937,-0.5 -0.0937,-0.46875 -0.0625,-0.5 -0.0625,-0.34375 0.65625,-0.375 0.75,-0.4375 0.75,-0.4375 0.75,-0.4375 L 382.5,261 l 0.75,-0.4375 0.75,-0.4375 0.75,-0.4375 0.0312,-0.0312 0.0625,0.0625 0.5625,0.65625 0.5625,0.65625 0.5625,0.6875 0.5625,0.65625 0.5625,0.65625 0.5625,0.6875 0.5625,0.65625 0.5625,0.65625 -0.0625,0.40625 -0.0625,0.5 -0.0937,0.46875 -0.0937,0.5 -0.0625,0.46875 -0.0937,0.46875 -0.0937,0.5 -0.0937,0.46875 0.5,0.0937 0.0937,-0.46875 0.0625,-0.5 0.0937,-0.46875 0.0937,-0.5 0.0625,-0.46875 0.0937,-0.5 0.0937,-0.46875 0.0937,-0.46875 0,-0.125 0.0937,-0.0312 0.46875,-0.15625 0.46875,-0.1875 0.4375,-0.15625 0.46875,-0.15625 0.46875,-0.1875 0.46875,-0.15625 0.4375,-0.15625 0.46875,-0.1875 -0.15625,-0.4375 -0.46875,0.15625 -0.46875,0.15625 -0.4375,0.1875 -0.46875,0.15625 -0.46875,0.15625 -0.46875,0.1875 -0.4375,0.15625 -0.375,0.125 -0.46875,-0.59375 -0.5625,-0.65625 -0.5625,-0.65625 -0.5625,-0.6875 -0.5625,-0.65625 -0.5625,-0.6875 -0.53125,-0.65625 -0.53125,-0.625 0.0937,0.0312 0.28125,-1.5 0.28125,-1.53125 0.25,-1.53125 0.28125,-1.53125 0.25,-1.53125 0.28125,-1.5 0.28125,-1.53125 0.1875,-1.125 2.375,-0.40625 2.71875,-0.5 2.71875,-0.46875 2.71875,-0.46875 2.6875,-0.5 2.71875,-0.46875 2.71875,-0.46875 2.71875,-0.5 0.53125,-0.0937 0.40625,0.46875 1.75,2.09375 1.78125,2.09375 1.78125,2.125 1.75,2.09375 1.78125,2.125 1.75,2.09375 1.78125,2.125 1.5625,1.84375 -0.5625,1 -0.78125,1.34375 -0.78125,1.34375 -0.78125,1.34375 -0.75,1.3125 -0.78125,1.34375 -0.78125,1.34375 -0.6875,1.1875 -0.625,-0.0937 -0.84375,-0.15625 -0.875,-0.15625 -0.84375,-0.15625 -0.875,-0.15625 -0.84375,-0.15625 -0.84375,-0.15625 -0.875,-0.125 -0.21875,-0.34375 -0.25,-0.40625 -0.25,-0.4375 -0.25,-0.4375 -0.25,-0.40625 -0.25,-0.4375 -0.21875,-0.40625 -0.25,-0.4375 -0.4375,0.25 0.25,0.40625 0.25,0.4375 0.25,0.4375 0.25,0.40625 0.21875,0.4375 0.25,0.40625 0.25,0.4375 0.25,0.4375 0,0.0312 -0.375,0.3125 -0.375,0.34375 -0.375,0.3125 -0.375,0.3125 -0.375,0.3125 -0.375,0.3125 -0.375,0.3125 -0.375,0.3125 0.3125,0.375 0.375,-0.3125 0.375,-0.3125 0.375,-0.3125 0.375,-0.3125 0.375,-0.3125 0.375,-0.3125 0.375,-0.34375 0.3125,-0.25 0,0.0312 0.875,0.15625 0.84375,0.15625 0.875,0.15625 0.84375,0.125 0.84375,0.15625 0.875,0.15625 0.84375,0.15625 0.875,0.15625 0.1875,0.0312 0.0625,0.15625 0.28125,0.84375 0.3125,0.8125 0.28125,0.8125 0.3125,0.8125 0.28125,0.8125 0.3125,0.8125 0.28125,0.84375 0.28125,0.71875 -0.28125,0.21875 -0.375,0.3125 -0.375,0.3125 -0.375,0.3125 -0.375,0.3125 -0.375,0.34375 -0.375,0.3125 -0.375,0.3125 0.3125,0.375 0.375,-0.3125 0.375,-0.3125 0.375,-0.34375 0.375,-0.3125 0.375,-0.3125 0.375,-0.3125 0.375,-0.3125 0.375,-0.3125 0.0937,-0.0625 0.0937,0.0312 0.4375,0.15625 0.46875,0.1875 0.46875,0.15625 0.4375,0.1875 0.46875,0.15625 0.46875,0.15625 0.46875,0.1875 0.4375,0.15625 0.1875,-0.46875 -0.46875,-0.15625 -0.46875,-0.15625 -0.4375,-0.1875 -0.46875,-0.15625 -0.46875,-0.1875 -0.46875,-0.15625 L 422,278.375 l -0.4375,-0.15625 0.0625,-0.0312 -0.3125,-0.8125 -0.28125,-0.8125 -0.3125,-0.8125 -0.28125,-0.8125 -0.3125,-0.84375 -0.28125,-0.8125 -0.3125,-0.8125 -0.25,-0.71875 0.0625,0.0312 0.78125,-1.34375 0.78125,-1.34375 0.78125,-1.34375 0.75,-1.34375 0.78125,-1.34375 0.78125,-1.34375 0.78125,-1.3125 0.75,-1.34375 0.25,-0.40625 0.46875,-0.1875 1.46875,-0.53125 1.4375,-0.53125 1.46875,-0.53125 1.4375,-0.53125 1.46875,-0.53125 1.4375,-0.53125 1.46875,-0.53125 1.46875,-0.53125 -0.0312,-0.0625 0.65625,0.375 0.75,0.4375 0.78125,0.4375 0.75,0.4375 0.75,0.4375 0.75,0.40625 0.75,0.4375 0.75,0.4375 0.0312,-0.0937 0.0937,0.5 0.0625,0.46875 0.0937,0.5 0.0937,0.46875 0.0625,0.5 0.0937,0.46875 0.0937,0.46875 0.0937,0.5 L 445,263.25 l -0.0937,-0.46875 -0.0625,-0.5 -0.0937,-0.46875 -0.0937,-0.5 -0.0937,-0.46875 -0.0625,-0.46875 -0.0937,-0.5 -0.0937,-0.46875 0,-0.0625 0.0312,0 0.46875,-0.15625 0.46875,-0.1875 0.4375,-0.15625 0.46875,-0.15625 0.46875,-0.1875 0.46875,-0.15625 0.4375,-0.1875 0.46875,-0.15625 -0.15625,-0.46875 -0.46875,0.1875 -0.46875,0.15625 -0.46875,0.15625 -0.4375,0.1875 -0.46875,0.15625 -0.46875,0.1875 -0.4375,0.15625 -0.46875,0.15625 0.0625,-0.0625 -0.75,-0.4375 -0.75,-0.4375 -0.75,-0.4375 -0.75,-0.4375 -0.78125,-0.40625 -0.75,-0.4375 -0.75,-0.4375 -0.75,-0.4375 -0.0625,-0.0312 0.0312,-0.0625 0.28125,-0.84375 0.3125,-0.8125 0.28125,-0.8125 0.3125,-0.8125 0.3125,-0.8125 0.28125,-0.84375 0.3125,-0.8125 0.28125,-0.8125 -0.0625,0 0.4375,-0.15625 0.46875,-0.1875 0.4375,-0.15625 0.46875,-0.15625 0.46875,-0.1875 0.4375,-0.15625 0.46875,-0.1875 0.46875,-0.15625 L 444,246.875 l -0.46875,0.1875 -0.46875,0.15625 -0.46875,0.15625 -0.4375,0.1875 -0.46875,0.15625 -0.46875,0.1875 -0.46875,0.15625 -0.4375,0.15625 -0.0937,0.0312 -0.0937,-0.0625 -0.375,-0.3125 -0.375,-0.3125 L 439,247.25 438.625,246.9375 438.25,246.625 437.875,246.3125 437.5,246 l -0.375,-0.3125 -0.3125,0.375 0.375,0.3125 0.375,0.3125 0.375,0.3125 0.375,0.3125 0.375,0.3125 0.375,0.3125 0.375,0.3125 0.28125,0.25 -0.28125,0.71875 -0.28125,0.8125 -0.3125,0.8125 -0.28125,0.8125 -0.3125,0.8125 -0.28125,0.84375 -0.3125,0.8125 -0.25,0.75 -0.0312,-0.0937 -1.46875,0.53125 -1.46875,0.5 -1.4375,0.53125 -1.46875,0.53125 -1.4375,0.53125 -1.46875,0.53125 -1.4375,0.53125 -1.09375,0.40625 -1.53125,-1.875 -1.78125,-2.09375 -1.78125,-2.125 -1.75,-2.09375 -1.78125,-2.125 -1.75,-2.09375 -1.78125,-2.125 -1.625,-1.90625 0.3125,0.0625 0.875,-4.8125 0.84375,-4.8125 0.84375,-4.8125 0.84375,-4.84375 0.84375,-4.8125 0.84375,-4.8125 0.875,-4.8125 0.84375,-4.8125 0.28125,-1.53125 1.1875,-1 3.75,-3.15625 3.71875,-3.15625 3.75,-3.125 3.75,-3.15625 3.75,-3.125 3.75,-3.15625 3.75,-3.15625 3.75,-3.125 -0.21875,-0.25 2.46875,0.4375 2.71875,0.46875 2.71875,0.5 2.6875,0.46875 2.71875,0.46875 2.71875,0.46875 2.6875,0.5 2.40625,0.40625 0.1875,1.125 0.28125,1.53125 0.28125,1.53125 0.25,1.5 0.28125,1.53125 0.25,1.53125 0.28125,1.53125 0.25,1.34375 -0.5625,0.3125 -0.75,0.4375 -0.75,0.4375 L 471,193 l -0.75,0.4375 -0.75,0.4375 -0.75,0.4375 -0.75,0.4375 0.0625,0.0625 -0.46875,-0.1875 -0.4375,-0.15625 -0.46875,-0.15625 -0.46875,-0.1875 -0.4375,-0.15625 -0.46875,-0.1875 -0.46875,-0.15625 -0.46875,-0.15625 -0.15625,0.4375 0.46875,0.1875 0.4375,0.15625 0.46875,0.1875 0.46875,0.15625 0.46875,0.15625 0.4375,0.1875 0.46875,0.15625 0.46875,0.15625 0.0937,0.0312 0,0.125 0.0937,0.46875 0.0937,0.5 0.0937,0.46875 0.0625,0.5 0.0937,0.46875 0.0937,0.46875 0.0937,0.5 0.0625,0.46875 0.5,-0.0625 -0.0937,-0.5 -0.0937,-0.46875 -0.0625,-0.5 -0.0937,-0.46875 -0.0937,-0.5 -0.0937,-0.46875 -0.0625,-0.5 -0.0625,-0.34375 0.65625,-0.375 0.75,-0.4375 0.75,-0.4375 0.75,-0.4375 0.75,-0.4375 0.78125,-0.4375 0.75,-0.4375 0.75,-0.4375 0.15625,-0.0937 0.15625,0.0937 0.75,0.4375 0.75,0.4375 0.75,0.4375 0.78125,0.4375 0.75,0.4375 0.75,0.4375 0.75,0.4375 0.65625,0.375 -0.0625,0.34375 -0.0625,0.5 -0.0937,0.46875 -0.0937,0.5 -0.0937,0.46875 -0.0625,0.5 -0.0937,0.46875 -0.0937,0.5 0.5,0.0625 0.0625,-0.46875 0.0937,-0.5 0.0937,-0.46875 0.0937,-0.46875 0.0625,-0.5 0.0937,-0.46875 0.0937,-0.5 0.0625,-0.46875 0.0312,-0.125 0.0937,-0.0312 0.46875,-0.15625 0.46875,-0.15625 0.4375,-0.1875 0.46875,-0.15625 0.46875,-0.15625 0.4375,-0.1875 0.46875,-0.15625 0.46875,-0.1875 -0.15625,-0.4375 -0.46875,0.15625 -0.46875,0.15625 -0.46875,0.1875 -0.4375,0.15625 -0.46875,0.1875 -0.46875,0.15625 -0.46875,0.15625 -0.40625,0.1875 0.0312,-0.0625 -0.75,-0.4375 -0.75,-0.4375 -0.75,-0.4375 -0.78125,-0.4375 -0.75,-0.4375 -0.75,-0.4375 -0.75,-0.4375 -0.6875,-0.40625 0.0937,0 -0.25,-1.53125 -0.28125,-1.53125 -0.25,-1.5 -0.28125,-1.53125 -0.28125,-1.53125 -0.25,-1.53125 -0.28125,-1.5 -0.25,-1.53125 -0.0625,-0.3125 0.25,-0.21875 1.1875,-1 1.1875,-1 1.1875,-1 1.1875,-1 1.15625,-1 1.1875,-0.96875 1.1875,-1 1.1875,-1 -0.0625,-0.0937 0.78125,0.15625 0.875,0.15625 0.84375,0.15625 0.84375,0.125 0.875,0.15625 0.84375,0.15625 0.875,0.15625 0.84375,0.15625 0,-0.0937 0.25,0.40625 0.21875,0.4375 0.25,0.4375 0.25,0.40625 0.25,0.4375 0.25,0.40625 0.25,0.4375 L 491.5625,175 492,174.78125 l -0.25,-0.4375 -0.25,-0.4375 -0.25,-0.40625 -0.21875,-0.4375 -0.25,-0.40625 -0.25,-0.4375 -0.25,-0.40625 -0.25,-0.4375 -0.0625,-0.0937 0.0625,-0.0937 0.25,-0.40625 0.25,-0.4375 0.25,-0.40625 0.25,-0.4375 0.21875,-0.4375 0.25,-0.40625 0.25,-0.4375 0.25,-0.40625 -0.4375,-0.25 -0.21875,0.40625 -0.25,0.4375 -0.25,0.4375 -0.25,0.40625 -0.25,0.4375 -0.25,0.40625 -0.21875,0.4375 -0.1875,0.3125 -0.75,-0.125 -0.875,-0.15625 -0.84375,-0.15625 -0.875,-0.15625 -0.84375,-0.15625 -0.875,-0.15625 -0.84375,-0.125 -0.84375,-0.15625 -0.0937,-0.0312 0,-0.0625 0,-0.875 0,-0.875 0,-0.875 0,-0.84375 0,-0.875 0,-0.875 0,-0.875 0,-0.78125 0.34375,-0.125 0.46875,-0.15625 0.46875,-0.15625 0.4375,-0.1875 0.46875,-0.15625 0.46875,-0.15625 0.46875,-0.1875 0.4375,-0.15625 -0.15625,-0.46875 -0.46875,0.1875 -0.46875,0.15625 -0.4375,0.15625 -0.46875,0.1875 -0.46875,0.15625 -0.4375,0.15625 -0.46875,0.1875 -0.46875,0.15625 -0.0937,0.0312 -0.0937,-0.0625 -0.375,-0.3125 -0.375,-0.3125 -0.375,-0.3125 -0.375,-0.3125 -0.375,-0.3125 -0.375,-0.3125 -0.375,-0.3125 -0.375,-0.3125 -0.3125,0.375 0.375,0.3125 0.375,0.3125 0.375,0.3125 0.375,0.3125 0.375,0.3125 0.375,0.3125 0.375,0.3125 0.34375,0.28125 -0.0625,0 0,0.875 0,0.875 0,0.875 0,0.875 0,0.84375 0,0.875 0,0.875 0,0.8125 -0.0625,-0.0937 -1.15625,1 -1.1875,1 -1.1875,1 -1.1875,0.96875 -1.1875,1 -1.1875,1 -1.1875,1 -1.09375,0.9375 0.0312,-0.21875 -2.6875,-0.46875 -2.71875,-0.46875 -2.71875,-0.5 -2.6875,-0.46875 -2.71875,-0.46875 -2.71875,-0.46875 -2.71875,-0.5 -2.6875,-0.46875 -0.21875,-0.0312 0,-0.21875 0,-2.75 0,-2.75 0,-2.78125 0,-2.75 0,-2.75 0,-2.75 0,-2.75 0,-2.4375 1.0625,-0.375 1.46875,-0.53125 1.4375,-0.53125 1.46875,-0.53125 1.4375,-0.53125 1.46875,-0.53125 1.4375,-0.53125 1.28125,-0.46875 0.4375,0.5 0.53125,0.65625 0.5625,0.6875 0.5625,0.65625 0.5625,0.65625 0.5625,0.6875 0.5625,0.65625 0.5625,0.6875 0.0312,-0.0312 -0.0625,0.40625 -0.0937,0.5 -0.0937,0.46875 -0.0625,0.5 -0.0937,0.46875 -0.0937,0.5 -0.0937,0.46875 -0.0625,0.46875 0.46875,0.0937 0.0937,-0.46875 0.0937,-0.5 0.0625,-0.46875 0.0937,-0.5 0.0937,-0.46875 0.0625,-0.46875 0.0937,-0.5 0.0937,-0.46875 0,-0.0625 0.0312,0 0.5,0 0.5,0 0.46875,0 0.5,0 0.5,0 0.46875,0 0.5,0 0.5,0 0,-0.46875 -0.5,0 -0.5,0 -0.46875,0 -0.5,0 -0.5,0 -0.46875,0 -0.5,0 -0.40625,0 0,-0.0312 -0.5625,-0.6875 -0.5625,-0.65625 -0.53125,-0.65625 -0.5625,-0.6875 -0.5625,-0.65625 -0.5625,-0.65625 -0.5625,-0.6875 -0.5625,-0.65625 -0.1875,-0.21875 0,-0.28125 0,-0.875 0,-0.875 0,-0.84375 0,-0.875 0,-0.875 0,-0.875 0,-0.875 0,-0.75 0.34375,-0.125 0.46875,-0.1875 0.46875,-0.15625 0.4375,-0.15625 0.46875,-0.1875 0.46875,-0.15625 0.4375,-0.1875 0.46875,-0.15625 -0.15625,-0.46875 -0.46875,0.1875 -0.46875,0.15625 -0.4375,0.15625 -0.46875,0.1875 -0.46875,0.15625 -0.46875,0.1875 -0.4375,0.15625 -0.46875,0.15625 -0.15625,0.0625 -0.125,-0.0625 -0.46875,-0.15625 -0.46875,-0.15625 -0.46875,-0.1875 -0.4375,-0.15625 -0.46875,-0.1875 -0.46875,-0.15625 -0.4375,-0.15625 -0.46875,-0.1875 -0.1875,0.46875 0.46875,0.15625 0.46875,0.1875 0.46875,0.15625 0.4375,0.1875 0.46875,0.15625 0.46875,0.15625 0.46875,0.1875 0.3125,0.125 0,0.75 0,0.875 0,0.875 0,0.875 0,0.875 0,0.84375 0,0.875 0,0.65625 -1.28125,0.46875 -1.4375,0.53125 -1.46875,0.53125 -1.4375,0.53125 -1.46875,0.53125 -1.4375,0.53125 -1.46875,0.5 -1.4375,0.53125 -0.46875,0.15625 -0.46875,-0.15625 -1.46875,-0.53125 -1.4375,-0.5 -1.46875,-0.53125 -1.4375,-0.53125 -1.46875,-0.53125 -1.4375,-0.53125 -1.46875,-0.53125 -1.28125,-0.46875 0,-0.65625 0,-0.875 0,-0.84375 0,-0.875 0,-0.875 0,-0.875 0,-0.875 0,-0.875 -0.0625,0 0.34375,-0.28125 0.375,-0.3125 0.375,-0.3125 0.375,-0.3125 0.375,-0.3125 0.375,-0.3125 0.375,-0.3125 0.375,-0.3125 -0.3125,-0.375 -0.375,0.3125 -0.375,0.3125 -0.375,0.3125 -0.375,0.3125 -0.375,0.3125 -0.375,0.3125 -0.375,0.3125 -0.375,0.3125 -0.0937,0.0625 -0.0937,-0.0312 -0.4375,-0.15625 -0.46875,-0.15625 -0.46875,-0.1875 -0.46875,-0.15625 -0.4375,-0.1875 -0.46875,-0.15625 -0.46875,-0.15625 -0.4375,-0.1875 -0.1875,0.46875 0.46875,0.15625 0.46875,0.1875 0.4375,0.15625 0.46875,0.1875 0.46875,0.15625 0.46875,0.15625 0.4375,0.1875 0.34375,0.125 0,0.75 0,0.875 0,0.875 0,0.875 0,0.875 0,0.84375 0,0.875 0,0.875 0,0.1875 -0.15625,0.0937 -0.75,0.4375 -0.75,0.4375 -0.75,0.4375 -0.75,0.4375 -0.78125,0.4375 -0.75,0.4375 -0.75,0.4375 -0.65625,0.375 -0.28125,-0.25 -0.375,-0.3125 -0.375,-0.3125 -0.375,-0.3125 -0.375,-0.3125 -0.375,-0.3125 -0.375,-0.3125 -0.375,-0.3125 -0.3125,0.375 0.375,0.3125 0.375,0.3125 0.375,0.3125 0.375,0.3125 0.375,0.3125 0.375,0.3125 0.375,0.3125 0.375,0.34375 0.0937,0.0625 -0.0312,0.0937 -0.0937,0.46875 -0.0937,0.5 -0.0625,0.46875 -0.0937,0.5 -0.0937,0.46875 -0.0625,0.5 -0.0937,0.46875 -0.0937,0.46875 0.5,0.0937 0.0625,-0.46875 0.0937,-0.5 0.0937,-0.46875 0.0625,-0.5 0.0937,-0.46875 0.0937,-0.46875 0.0937,-0.5 0.0625,-0.46875 0.0312,0.0937 0.75,-0.4375 0.75,-0.4375 0.75,-0.4375 0.75,-0.4375 0.78125,-0.4375 0.75,-0.4375 0.75,-0.4375 0.6875,-0.40625 -0.0312,0.0937 1.4375,0.53125 1.46875,0.53125 1.4375,0.53125 1.46875,0.53125 1.4375,0.53125 1.46875,0.53125 1.4375,0.53125 1.09375,0.40625 0,2.40625 0,2.75 0,2.75 0,2.75 0,2.75 0,2.78125 0,2.75 0,2.5 -0.21875,-0.25 -3.75,3.125 -3.71875,3.15625 -3.75,3.15625 -3.75,3.125 -3.75,3.15625 -3.75,3.125 -3.75,3.15625 -2.75,2.3125 -6.65625,-3.84375 -7.53125,-4.34375 -7.53125,-4.34375 -7.53125,-4.34375 -7.53125,-4.34375 -7.53125,-4.34375 -7.53125,-4.375 -7.53125,-4.34375 -2.40625,-1.375 -0.9375,-2.59375 -2.96875,-8.1875 -3,-8.15625 -2.96875,-8.1875 -2.96875,-8.15625 -2.96875,-8.1875 -2.96875,-8.15625 -3,-8.1875 -2.96875,-8.15625 -0.53125,0.1875 2.25,-3.84375 2.4375,-4.25 2.4375,-4.21875 2.46875,-4.25 2.4375,-4.21875 2.4375,-4.25 2.4375,-4.25 2.1875,-3.71875 1.96875,0.34375 2.71875,0.46875 2.71875,0.5 2.6875,0.46875 2.71875,0.46875 2.71875,0.5 2.71875,0.46875 2.6875,0.46875 0.0312,-0.1875 0.71875,1.21875 0.75,1.34375 0.78125,1.34375 0.78125,1.34375 0.78125,1.34375 0.78125,1.34375 0.75,1.34375 0.6875,1.1875 -0.40625,0.46875 -0.5625,0.6875 -0.5625,0.65625 -0.5625,0.65625 -0.5625,0.6875 -0.5625,0.65625 -0.53125,0.6875 -0.5,0.5625 -0.34375,-0.125 L 372.7188,79.1563 372.25,79 371.8125,78.8125 371.34375,78.65625 370.875,78.5 l -0.4375,-0.1875 -0.46875,-0.15625 -0.1875,0.46875 0.46875,0.15625 0.46875,0.15625 0.46875,0.1875 0.4375,0.15625 0.46875,0.15625 0.46875,0.1875 0.46875,0.15625 0.4375,0.15625 0.125,0.0625 0.0937,0.15625 0.25,0.40625 0.25,0.4375 0.25,0.40625 0.25,0.4375 0.25,0.40625 0.21875,0.4375 0.25,0.4375 0.25,0.40625 0.4375,-0.25 -0.25,-0.40625 -0.25,-0.4375 -0.25,-0.40625 -0.25,-0.4375 -0.25,-0.4375 L 374.625,80.75 374.375,80.3125 374.1875,80 l 0.5,-0.59375 0.5625,-0.65625 0.5625,-0.65625 0.5625,-0.6875 0.53125,-0.65625 0.5625,-0.65625 0.5625,-0.6875 0.5625,-0.65625 0.15625,-0.1875 0.3125,-0.0625 0.84375,-0.15625 0.875,-0.15625 0.84375,-0.15625 0.84375,-0.15625 0.875,-0.15625 0.84375,-0.125 0.875,-0.15625 0.75,-0.125 0.1875,0.3125 0.25,0.40625 0.21875,0.4375 0.25,0.40625 0.25,0.4375 0.25,0.40625 0.25,0.4375 0.25,0.4375 0.40625,-0.25 -0.25,-0.4375 -0.25,-0.40625 -0.21875,-0.4375 -0.25,-0.4375 -0.25,-0.40625 -0.25,-0.4375 -0.25,-0.40625 -0.25,-0.4375 -0.0625,-0.125 0.0312,-0.15625 0.0937,-0.5 0.0625,-0.46875 0.0937,-0.46875 0.0937,-0.5 0.0625,-0.46875 0.0937,-0.5 0.0937,-0.46875 0.0937,-0.5 -0.5,-0.0625 -0.0937,0.46875 -0.0625,0.5 -0.0937,0.46875 -0.0937,0.46875 -0.0625,0.5 -0.0937,0.46875 -0.0937,0.5 -0.0625,0.34375 -0.75,0.125 -0.875,0.15625 -0.84375,0.15625 -0.84375,0.15625 -0.875,0.15625 -0.84375,0.15625 -0.875,0.125 -0.625,0.125 -0.6875,-1.1875 -0.78125,-1.34375 -0.75,-1.34375 -0.78125,-1.34375 -0.78125,-1.3125 -0.78125,-1.34375 -0.75,-1.34375 -0.78125,-1.34375 -0.15625,-0.28125 0.15625,-0.28125 0.78125,-1.34375 0.75,-1.34375 0.78125,-1.34375 0.78125,-1.34375 0.78125,-1.34375 0.75,-1.34375 0.78125,-1.34375 0.78125,-1.3125 -0.15625,-0.0625 0.84375,-0.125 0.875,-0.15625 0.84375,-0.15625 0.84375,-0.15625 0.875,-0.15625 0.84375,-0.15625 0.875,-0.125 0.84375,-0.15625 -0.0312,-0.09375 0.375,0.3125 0.375,0.3125 0.375,0.3125 0.375,0.3125 0.375,0.3125 0.375,0.3125 0.375,0.34375 0.375,0.3125 0.3125,-0.375 -0.375,-0.3125 -0.375,-0.34375 -0.375,-0.3125 -0.375,-0.3125 -0.375,-0.3125 -0.375,-0.3125 -0.375,-0.3125 -0.375,-0.3125 -0.0312,-0.03125 0,-0.03125 0.25,-0.40625 0.25,-0.4375 0.25,-0.4375 0.25,-0.40625 0.25,-0.4375 0.21875,-0.40625 0.25,-0.4375 0.25,-0.40625 -0.40625,-0.25 -0.25,0.40625 -0.25,0.4375 -0.25,0.40625 -0.25,0.4375 -0.25,0.4375 -0.21875,0.40625 -0.25,0.4375 -0.25,0.40625 0,-0.09375 -0.84375,0.15625 -0.875,0.15625 -0.84375,0.15625 -0.84375,0.15625 -0.875,0.125 -0.84375,0.15625 -0.875,0.15625 -0.84375,0.15625 -0.1875,0.03125 -0.125,-0.125 -0.5625,-0.6875 -0.5625,-0.65625 -0.5625,-0.6875 -0.53125,-0.65625 -0.5625,-0.65625 -0.5625,-0.6875 -0.5625,-0.65625 -0.5,-0.59375 0.1875,-0.3125 0.25,-0.40625 0.21875,-0.4375 0.25,-0.40625 0.25,-0.4375 0.25,-0.4375 0.25,-0.40625 0.25,-0.4375 -0.4375,-0.25 -0.25,0.4375 -0.25,0.4375 -0.21875,0.40625 -0.25,0.4375 -0.25,0.40625 -0.25,0.4375 -0.25,0.40625 -0.25,0.4375 -0.0625,0.09375 -0.0937,0 -0.46875,0 -0.5,0 -0.5,0 -0.46875,0 -0.5,0 -0.5,0 -0.46875,0 -0.5,0 0,0.5 0.5,0 0.46875,0 0.5,0 0.5,0 0.46875,0 0.5,0 0.5,0 0.46875,0 -0.0625,0.03125 0.5625,0.65625 0.53125,0.65625 0.5625,0.6875 0.5625,0.65625 0.5625,0.65625 0.5625,0.6875 0.5625,0.65625 0.40625,0.5 -0.6875,1.1875 -0.75,1.34375 -0.78125,1.3125 L 374.7813,56.3125 374,57.65625 373.21875,59 l -0.75,1.34375 -0.5625,0.96875 -2.40625,-0.40625 -2.71875,-0.46875 -2.71875,-0.46875 -2.6875,-0.5 L 358.65625,59 l -2.71875,-0.46875 -2.6875,-0.5 -2.71875,-0.46875 -0.875,-0.15625 -0.5625,-0.65625 -1.75,-2.125 -1.78125,-2.09375 -1.78125,-2.125 -1.75,-2.09375 L 340.25,46.1875 338.5,44.09375 336.71875,42 l -1.5625,-1.875 0.5625,-1 0.78125,-1.3125 0.78125,-1.34375 0.78125,-1.34375 0.75,-1.34375 0.78125,-1.34375 0.78125,-1.34375 0.6875,-1.1875 0.625,0.125 0.84375,0.15625 0.875,0.125 0.84375,0.15625 0.875,0.15625 0.84375,0.15625 0.875,0.15625 0.75,0.125 0.0625,0.34375 0.0937,0.5 0.0625,0.46875 0.0937,0.5 0.0937,0.46875 0.0625,0.5 0.0937,0.46875 0.0937,0.46875 0.46875,-0.0625 -0.0625,-0.5 -0.0937,-0.46875 -0.0937,-0.5 -0.0937,-0.46875 -0.0625,-0.46875 -0.0937,-0.5 -0.0937,-0.46875 -0.0625,-0.5 -0.0312,-0.09375 0.0937,-0.0625 0.375,-0.3125 0.375,-0.3125 0.375,-0.3125 0.375,-0.3125 0.375,-0.34375 0.375,-0.3125 0.375,-0.3125 0.375,-0.3125 -0.34375,-0.375 -0.375,0.3125 -0.375,0.3125 -0.375,0.3125 -0.375,0.34375 -0.375,0.3125 -0.375,0.3125 -0.375,0.3125 -0.3125,0.28125 0,-0.0625 -0.875,-0.15625 -0.84375,-0.15625 -0.84375,-0.125 -0.875,-0.15625 -0.84375,-0.15625 -0.875,-0.15625 -0.84375,-0.15625 -0.875,-0.15625 -0.25,-0.03125 -0.1875,-0.21875 -0.5625,-0.65625 -0.5625,-0.6875 -0.5625,-0.65625 -0.5625,-0.65625 -0.5625,-0.6875 -0.5625,-0.65625 -0.53125,-0.65625 -0.5,-0.59375 0.1875,-0.3125 0.21875,-0.4375 0.25,-0.40625 0.25,-0.4375 0.25,-0.40625 0.25,-0.4375 0.25,-0.4375 0.21875,-0.40625 -0.40625,-0.25 z m -247.40625,246.25 0.4375,-0.25 -0.25,-0.40625 -0.25,-0.4375 -0.25,-0.40625 -0.21875,-0.4375 -0.4375,0.25 0.25,0.4375 0.25,0.40625 0.21875,0.4375 0.25,0.40625 z" />
      <path
         id="0"
         transform="matrix(0.23133443,0.23955381,-0.23955381,0.23133443,108,218)"
         d="m 17.142,55.5 c 32,-24 0,-53 0,-53 M 17,55.5 c -32,-24 0,-53 0,-53 m 0,67 v -54"
         style="color:#000000;fill:#008000;fill-opacity:0.5;stroke:#000000" />
      <path
         id="60"
         transform="matrix(-0.21654777,-0.53597454,0.53597454,-0.21654777,265,212)"
         d="m 17.142,55.5 c 32,-24 0,-53 0,-53 M 17,55.5 c -32,-24 0,-53 0,-53 m 0,67 v -54"
         style="color:#000000;fill:#008000;fill-opacity:0.5;stroke:#000000" />
      <path
         id="61"
         transform="matrix(-0.31648514,-0.43560443,0.43560443,-0.31648514,266,108)"
         d="m 17.142,55.5 c 32,-24 0,-53 0,-53 M 17,55.5 c -32,-24 0,-53 0,-53 m 0,67 v -54"
         style="color:#000000;fill:#008000;fill-opacity:0.5;stroke:#000000" />
      <path
         id="63"
         transform="matrix(-0.27990571,0.08557576,-0.08557576,-0.27990571,304,141)"
         d="m 17.142,55.5 c 32,-24 0,-53 0,-53 M 17,55.5 c -32,-24 0,-53 0,-53 m 0,67 v -54"
         style="color:#000000;fill:#008000;fill-opacity:0.5;stroke:#000000" />
      <path
         id="64"
         transform="matrix(-0.30476078,-0.12313135,0.12313135,-0.30476078,204,119)"
         d="m 17.142,55.5 c 32,-24 0,-53 0,-53 M 17,55.5 c -32,-24 0,-53 0,-53 m 0,67 v -54"
         style="color:#000000;fill:#008000;fill-opacity:0.5;stroke:#000000" />
      <path
         id="65"
         transform="matrix(-0.55275274,-0.76079887,0.76079887,-0.55275274,82,58)"
         d="m 17.142,55.5 c 32,-24 0,-53 0,-53 M 17,55.5 c -32,-24 0,-53 0,-53 m 0,67 v -54"
         style="color:#000000;fill:#008000;fill-opacity:0.5;stroke:#000000" />
      <path
         id="66"
         transform="matrix(0.23994219,-0.47091307,0.47091307,0.23994219,223,187)"
         d="m 17.142,55.5 c 32,-24 0,-53 0,-53 M 17,55.5 c -32,-24 0,-53 0,-53 m 0,67 v -54"
         style="color:#000000;fill:#008000;fill-opacity:0.5;stroke:#000000" />
      <path
         id="67"
         transform="matrix(-0.1331284,0.1285606,-0.1285606,-0.1331284,404,182)"
         d="m 17.142,55.5 c 32,-24 0,-53 0,-53 M 17,55.5 c -32,-24 0,-53 0,-53 m 0,67 v -54"
         style="color:#000000;fill:#008000;fill-opacity:0.5;stroke:#000000" />
      <path
         id="68"
         transform="matrix(-0.65941231,0.26641987,-0.26641987,-0.65941231,191,212)"
         d="m 17.142,55.5 c 32,-24 0,-53 0,-53 M 17,55.5 c -32,-24 0,-53 0,-53 m 0,67 v -54"
         style="color:#000000;fill:#008000;fill-opacity:0.5;stroke:#000000" />
      <path
         id="69"
         transform="matrix(0.55032338,-0.22234508,0.22234508,0.55032338,195,126)"
         d="m 17.142,55.5 c 32,-24 0,-53 0,-53 M 17,55.5 c -32,-24 0,-53 0,-53 m 0,67 v -54"
         style="color:#000000;fill:#008000;fill-opacity:0.5;stroke:#000000" />
      <path
         id="70"
         transform="matrix(0.27173804,-0.45224804,0.45224804,0.27173804,436,232)"
         d="m 17.142,55.5 c 32,-24 0,-53 0,-53 M 17,55.5 c -32,-24 0,-53 0,-53 m 0,67 v -54"
         style="color:#000000;fill:#008000;fill-opacity:0.5;stroke:#000000" />
      <path
         id="71"
         transform="matrix(-0.32956492,-0.70675426,0.70675426,-0.32956492,382,119)"
         d="m 17.142,55.5 c 32,-24 0,-53 0,-53 M 17,55.5 c -32,-24 0,-53 0,-53 m 0,67 v -54"
         style="color:#000000;fill:#008000;fill-opacity:0.5;stroke:#000000" />
      <path
         id="72"
         transform="matrix(0.16615655,0.10790333,-0.10790333,0.16615655,190,194)"
         d="m 17.142,55.5 c 32,-24 0,-53 0,-53 M 17,55.5 c -32,-24 0,-53 0,-53 m 0,67 v -54"
         style="color:#000000;fill:#008000;fill-opacity:0.5;stroke:#000000" />
      <path
         id="73"
         transform="matrix(-0.5460817,0.52734497,-0.52734497,-0.5460817,64,240)"
         d="m 17.142,55.5 c 32,-24 0,-53 0,-53 M 17,55.5 c -32,-24 0,-53 0,-53 m 0,67 v -54"
         style="color:#000000;fill:#008000;fill-opacity:0.5;stroke:#000000" />
      <path
         id="74"
         transform="matrix(-0.03621705,0.517928,-0.517928,-0.03621705,110,139)"
         d="m 17.142,55.5 c 32,-24 0,-53 0,-53 M 17,55.5 c -32,-24 0,-53 0,-53 m 0,67 v -54"
         style="color:#000000;fill:#008000;fill-opacity:0.5;stroke:#000000" />
      <path
         id="75"
         transform="matrix(-0.82179764,-0.04306859,0.04306859,-0.82179764,70,192)"
         d="m 17.142,55.5 c 32,-24 0,-53 0,-53 M 17,55.5 c -32,-24 0,-53 0,-53 m 0,67 v -54"
         style="color:#000000;fill:#008000;fill-opacity:0.5;stroke:#000000" />
      <path
         id="76"
         transform="matrix(0.69687526,0.58474777,-0.58474777,0.69687526,343,164)"
         d="m 17.142,55.5 c 32,-24 0,-53 0,-53 M 17,55.5 c -32,-24 0,-53 0,-53 m 0,67 v -54"
         style="color:#000000;fill:#008000;fill-opacity:0.5;stroke:#000000" />
      <path
         id="77"
         transform="matrix(-0.4084308,-0.34271413,0.34271413,-0.4084308,254,60)"
         d="m 17.142,55.5 c 32,-24 0,-53 0,-53 M 17,55.5 c -32,-24 0,-53 0,-53 m 0,67 v -54"
         style="color:#000000;fill:#008000;fill-opacity:0.5;stroke:#000000" />
      <path
         id="78"
         transform="matrix(-0.36469081,0.31702089,-0.31702089,-0.36469081,204,177)"
         d="m 17.142,55.5 c 32,-24 0,-53 0,-53 M 17,55.5 c -32,-24 0,-53 0,-53 m 0,67 v -54"
         style="color:#000000;fill:#008000;fill-opacity:0.5;stroke:#000000" />
      <path
         id="79"
         transform="matrix(0.6332003,0.18156727,-0.18156727,0.6332003,212,226)"
         d="m 17.142,55.5 c 32,-24 0,-53 0,-53 M 17,55.5 c -32,-24 0,-53 0,-53 m 0,67 v -54"
         style="color:#000000;fill:#008000;fill-opacity:0.5;stroke:#000000" />
      <path
         id="80"
         transform="matrix(0.33919287,0.83953182,-0.83953182,0.33919287,395,227)"
         d="m 17.142,55.5 c 32,-24 0,-53 0,-53 M 17,55.5 c -32,-24 0,-53 0,-53 m 0,67 v -54"
         style="color:#000000;fill:#008000;fill-opacity:0.5;stroke:#000000" />
      <path
         id="81"
         transform="matrix(-0.74498783,-0.06517799,0.06517799,-0.74498783,348,186)"
         d="m 17.142,55.5 c 32,-24 0,-53 0,-53 M 17,55.5 c -32,-24 0,-53 0,-53 m 0,67 v -54"
         style="color:#000000;fill:#008000;fill-opacity:0.5;stroke:#000000" />
      <path
         id="82"
         transform="matrix(0.27658146,-0.14706097,0.14706097,0.27658146,393,104)"
         d="m 17.142,55.5 c 32,-24 0,-53 0,-53 M 17,55.5 c -32,-24 0,-53 0,-53 m 0,67 v -54"
         style="color:#000000;fill:#008000;fill-opacity:0.5;stroke:#000000" />
      <path
         id="83"
         transform="matrix(-0.13763306,0.02426842,-0.02426842,-0.13763306,397,152)"
         d="m 17.142,55.5 c 32,-24 0,-53 0,-53 M 17,55.5 c -32,-24 0,-53 0,-53 m 0,67 v -54"
         style="color:#000000;fill:#008000;fill-opacity:0.5;stroke:#000000" />
      <path
         id="84"
         transform="matrix(0.39293594,-0.40689708,0.40689708,0.39293594,114,97)"
         d="m 17.142,55.5 c 32,-24 0,-53 0,-53 M 17,55.5 c -32,-24 0,-53 0,-53 m 0,67 v -54"
         style="color:#000000;fill:#008000;fill-opacity:0.5;stroke:#000000" />
      <path
         id="85"
         transform="matrix(0.52919754,0.51104013,-0.51104013,0.52919754,196,186)"
         d="m 17.142,55.5 c 32,-24 0,-53 0,-53 M 17,55.5 c -32,-24 0,-53 0,-53 m 0,67 v -54"
         style="color:#000000;fill:#008000;fill-opacity:0.5;stroke:#000000" />
      <path
         id="86"
         transform="matrix(-0.7596822,-0.10676637,0.10676637,-0.7596822,73,147)"
         d="m 17.142,55.5 c 32,-24 0,-53 0,-53 M 17,55.5 c -32,-24 0,-53 0,-53 m 0,67 v -54"
         style="color:#000000;fill:#008000;fill-opacity:0.5;stroke:#000000" />
      <path
         id="87"
         transform="matrix(-0.22123076,-0.82564443,0.82564443,-0.22123076,140,190)"
         d="m 17.142,55.5 c 32,-24 0,-53 0,-53 M 17,55.5 c -32,-24 0,-53 0,-53 m 0,67 v -54"
         style="color:#000000;fill:#008000;fill-opacity:0.5;stroke:#000000" />
      <path
         id="88"
         transform="matrix(-0.05092125,0.72820785,-0.72820785,-0.05092125,279,206)"
         d="m 17.142,55.5 c 32,-24 0,-53 0,-53 M 17,55.5 c -32,-24 0,-53 0,-53 m 0,67 v -54"
         style="color:#000000;fill:#008000;fill-opacity:0.5;stroke:#000000" />
      <path
         id="89"
         transform="matrix(-0.64805896,-0.24876653,0.24876653,-0.64805896,190,148)"
         d="m 17.142,55.5 c 32,-24 0,-53 0,-53 M 17,55.5 c -32,-24 0,-53 0,-53 m 0,67 v -54"
         style="color:#000000;fill:#008000;fill-opacity:0.5;stroke:#000000" />
      <path
         id="90"
         transform="matrix(0.1973781,-0.15420868,0.15420868,0.1973781,309,89)"
         d="m 17.142,55.5 c 32,-24 0,-53 0,-53 M 17,55.5 c -32,-24 0,-53 0,-53 m 0,67 v -54"
         style="color:#000000;fill:#008000;fill-opacity:0.5;stroke:#000000" />
      <path
         id="91"
         transform="matrix(0.46485847,-0.33773945,0.33773945,0.46485847,389,116)"
         d="m 17.142,55.5 c 32,-24 0,-53 0,-53 M 17,55.5 c -32,-24 0,-53 0,-53 m 0,67 v -54"
         style="color:#000000;fill:#008000;fill-opacity:0.5;stroke:#000000" />
      <path
         id="92"
         transform="matrix(0.23624188,0.10518166,-0.10518166,0.23624188,259,211)"
         d="m 17.142,55.5 c 32,-24 0,-53 0,-53 M 17,55.5 c -32,-24 0,-53 0,-53 m 0,67 v -54"
         style="color:#000000;fill:#008000;fill-opacity:0.5;stroke:#000000" />
      <path
         id="93"
         transform="matrix(-0.81932575,0.05729284,-0.05729284,-0.81932575,254,168)"
         d="m 17.142,55.5 c 32,-24 0,-53 0,-53 M 17,55.5 c -32,-24 0,-53 0,-53 m 0,67 v -54"
         style="color:#000000;fill:#008000;fill-opacity:0.5;stroke:#000000" />
    </g>
    <g
       id="g6575"
       transform="matrix(1.4566252,0,0,1.4566252,-367.14352,-464.69582)">
      <rect
         ry="6.3431582"
         y="678.8642"
         x="734.8407"
         height="35.433071"
         width="70.866142"
         id="rect6573"
         style="fill:#ffffff;fill-opacity:1;stroke:none" />
      <rect
         ry="6.3431582"
         y="671.20483"
         x="596.20129"
         height="87.575172"
         width="138.5265"
         id="rect2983"
         style="fill:#ffffff;stroke:#000000;stroke-width:0.96535164;stroke-miterlimit:4;stroke-opacity:1;stroke-dasharray:none" />
      <text
         id="text2985"
         y="689.84296"
         x="616.60712"
         style="font-size:10px;font-style:normal;font-weight:bold;fill:#000000;fill-opacity:1;stroke:none;font-family:Bitstream Vera Sans;-inkscape-font-specification:Andale Mono Bold"
         xml:space="preserve"><tspan
           y="689.84296"
           x="616.60712"
           id="tspan2987"
           sodipodi:role="line">charge controller</tspan></text>
      <text
         id="text2989"
         y="723.19934"
         x="628.63837"
         style="font-size:10px;font-style:normal;font-weight:normal;fill:#000000;fill-opacity:1;stroke:none;font-family:Bitstream Vera Sans"
         xml:space="preserve"><tspan
           y="723.19934"
           x="628.63837"
           id="tspan2991"
           sodipodi:role="line">192.168.2.150</tspan></text>
      <rect
         ry="6.3431582"
         y="671.20483"
         x="806.79974"
         height="87.575172"
         width="138.5265"
         id="rect2983-4"
         style="fill:#ffffff;stroke:#000000;stroke-width:0.96535164;stroke-miterlimit:4;stroke-opacity:1;stroke-dasharray:none" />
      <text
         id="text2985-2"
         y="689.84296"
         x="841.43896"
         style="font-size:10px;font-style:normal;font-weight:bold;fill:#000000;fill-opacity:1;stroke:none;font-family:Bitstream Vera Sans;-inkscape-font-specification:Andale Mono Bold"
         xml:space="preserve"><tspan
           y="689.84296"
           x="841.43896"
           id="tspan2987-8"
           sodipodi:role="line">raspberry pi</tspan></text>
      <text
         id="text2989-2"
         y="723.19934"
         x="839.23682"
         style="font-size:10px;font-style:normal;font-weight:normal;fill:#000000;fill-opacity:1;stroke:none;font-family:Bitstream Vera Sans"
         xml:space="preserve"><tspan
           y="723.19934"
           x="839.23682"
           id="tspan2991-5"
           sodipodi:role="line">192.168.2.160</tspan></text>
      <g
         transform="translate(508.25869,400.73237)"
         id="g4458">
        <rect
           style="fill:none;stroke:#000000;stroke-width:0.96535164;stroke-miterlimit:4;stroke-opacity:1;stroke-dasharray:none"
           id="rect2983-7"
           width="138.5265"
           height="87.575172"
           x="197.46179"
           y="412.20477"
           ry="6.3431582" />
        <text
           xml:space="preserve"
           style="font-size:10px;font-style:normal;font-weight:bold;fill:#000000;fill-opacity:1;stroke:none;font-family:Bitstream Vera Sans;-inkscape-font-specification:Andale Mono Bold"
           x="237.14984"
           y="430.84286"
           id="text2985-4"><tspan
             sodipodi:role="line"
             id="tspan2987-1"
             x="237.14984"
             y="430.84286">belkin 54g</tspan></text>
        <text
           xml:space="preserve"
           style="font-size:10px;font-style:normal;font-weight:normal;fill:#000000;fill-opacity:1;stroke:none;font-family:Bitstream Vera Sans"
           x="236.39545"
           y="464.19928"
           id="text2989-9"><tspan
             sodipodi:role="line"
             id="tspan2991-8"
             x="236.39545"
             y="464.19928">192.168.2.1</tspan></text>
        <text
           id="text3061"
           y="482.19928"
           x="236.39545"
           style="font-size:10px;font-style:normal;font-weight:normal;fill:#000000;fill-opacity:1;stroke:none;font-family:Bitstream Vera Sans"
           xml:space="preserve"><tspan
             y="482.19928"
             x="236.39545"
             id="tspan3063"
             sodipodi:role="line">192.168.1.x</tspan></text>
      </g>
      <rect
         style="fill:#ffffff;stroke:#000000;stroke-width:0.96535164;stroke-miterlimit:4;stroke-opacity:1;stroke-dasharray:none"
         id="rect3065"
         width="138.5265"
         height="87.575172"
         x="493.47028"
         y="812.93713"
         ry="6.3431582" />
      <text
         xml:space="preserve"
         style="font-size:10px;font-style:normal;font-weight:bold;fill:#000000;fill-opacity:1;stroke:none;font-family:Bitstream Vera Sans;-inkscape-font-specification:Andale Mono Bold"
         x="535.89514"
         y="831.57526"
         id="text3067"><tspan
           sodipodi:role="line"
           id="tspan3069"
           x="535.89514"
           y="831.57526">3g router</tspan></text>
      <text
         xml:space="preserve"
         style="font-size:10px;font-style:normal;font-weight:normal;fill:#000000;fill-opacity:1;stroke:none;font-family:Bitstream Vera Sans"
         x="532.40393"
         y="864.93164"
         id="text3071"><tspan
           sodipodi:role="line"
           id="tspan3073"
           x="532.40393"
           y="864.93164">192.168.1.1</tspan></text>
      <g
         transform="translate(80.88677,147.15712)"
         id="g5596">
        <rect
           style="fill:none;stroke:#000000;stroke-width:0.96535164;stroke-miterlimit:4;stroke-opacity:1;stroke-dasharray:none"
           id="rect3079"
           width="138.5265"
           height="87.575172"
           x="197.46179"
           y="666.20477"
           ry="6.3431582" />
        <text
           xml:space="preserve"
           style="font-size:10px;font-style:normal;font-weight:bold;fill:#000000;fill-opacity:1;stroke:none;font-family:Bitstream Vera Sans;-inkscape-font-specification:Andale Mono Bold"
           x="252.31097"
           y="684.8429"
           id="text3081"><tspan
             sodipodi:role="line"
             id="tspan3083"
             x="252.31097"
             y="684.8429">cosm</tspan></text>
        <image
           y="692.5379"
           x="204.01343"
           id="image3181"
           height="42.953163"
           width="125.42323"
           xlink:href="file:///home/mattvenn/Desktop/1.png" />
      </g>
      <rect
         style="fill:#ffffff;stroke:#000000;stroke-width:0.96535164;stroke-miterlimit:4;stroke-opacity:1;stroke-dasharray:none"
         id="rect3185"
         width="138.5265"
         height="87.575172"
         x="394.79355"
         y="671.20483"
         ry="6.3431582" />
      <text
         xml:space="preserve"
         style="font-size:10px;font-style:normal;font-weight:bold;fill:#000000;fill-opacity:1;stroke:none;font-family:Bitstream Vera Sans;-inkscape-font-specification:Andale Mono Bold"
         x="425.35074"
         y="689.84296"
         id="text3187"><tspan
           sodipodi:role="line"
           id="tspan3189"
           x="425.35074"
           y="689.84296">mattvenn.net</tspan></text>
      <text
         xml:space="preserve"
         style="font-size:10px;font-style:normal;font-weight:normal;fill:#000000;fill-opacity:1;stroke:none;font-family:Bitstream Vera Sans"
         x="433.7565"
         y="723.19934"
         id="text3191"><tspan
           sodipodi:role="line"
           id="tspan3193"
           x="433.7565"
           y="723.19934">77.73.6.229</tspan></text>
      <path
         id="path3232"
         d="m 734.9376,705.7663 70.86615,0"
         style="fill:none;stroke:#000000;stroke-width:1px;stroke-linecap:butt;stroke-linejoin:miter;stroke-opacity:1;marker-start:url(#Arrow1Lstart);marker-end:url(#Arrow1Lend)" />
      <text
         id="text4454"
         y="695.44238"
         x="742.16364"
         style="font-size:20px;font-style:normal;font-weight:normal;fill:#000000;fill-opacity:1;stroke:none;font-family:Bitstream Vera Sans"
         xml:space="preserve"><tspan
           style="font-size:8px"
           y="695.44238"
           x="742.16364"
           id="tspan4456"
           sodipodi:role="line">serial modbus</tspan></text>
      <path
         id="path4655"
         d="m 698.5151,759.28465 54.13904,52.49739"
         style="fill:none;stroke:#000000;stroke-width:1px;stroke-linecap:butt;stroke-linejoin:miter;stroke-opacity:1;marker-start:url(#Arrow1Lstart);marker-end:url(#Arrow1Lend)" />
      <path
         id="path5029"
         d="m 787.01348,811.51319 54.22334,-52.88075"
         style="fill:none;stroke:#000000;stroke-width:1px;stroke-linecap:butt;stroke-linejoin:miter;stroke-opacity:1;marker-start:url(#Arrow1Lstart);marker-mid:none;marker-end:url(#Arrow1Lend)" />
      <path
         sodipodi:nodetypes="cc"
         id="path4655-3"
         d="m 632.63839,847.21512 70.86614,0"
         style="fill:none;stroke:#000000;stroke-width:1px;stroke-linecap:butt;stroke-linejoin:miter;stroke-opacity:1;marker-start:url(#Arrow1Lstart);marker-end:url(#Arrow1Lend)" />
      <path
         style="fill:none;stroke:#000000;stroke-width:1px;stroke-linecap:butt;stroke-linejoin:miter;stroke-opacity:1;marker-start:url(#Arrow1Lstart);marker-end:none"
         d="m 419.60559,847.21512 70.86614,0"
         id="path5636"
         sodipodi:nodetypes="cc" />
      <path
         style="fill:none;stroke:#000000;stroke-width:1px;stroke-linecap:butt;stroke-linejoin:miter;stroke-opacity:1;marker-start:url(#Arrow1Lstart);marker-end:url(#Arrow1Lend)"
         d="m 478.5151,759.28465 54.13904,52.49739"
         id="path5655" />
      <path
         sodipodi:nodetypes="cc"
         id="path5847"
         d="m 322.75069,705.3861 70.86614,0"
         style="fill:none;stroke:#000000;stroke-width:1px;stroke-linecap:butt;stroke-linejoin:miter;stroke-opacity:1;marker-start:none;marker-mid:none;marker-end:url(#Arrow1Lend-0)" />
      <text
         xml:space="preserve"
         style="font-size:20px;font-style:normal;font-weight:normal;fill:#000000;fill-opacity:1;stroke:none;font-family:Bitstream Vera Sans"
         x="306.16364"
         y="693.44238"
         id="text6419"><tspan
           sodipodi:role="line"
           id="tspan6421"
           x="306.16364"
           y="693.44238"
           style="font-size:8px">modbus port 10000</tspan></text>
      <text
         id="text6423"
         y="781.44238"
         x="510.16364"
         style="font-size:20px;font-style:normal;font-weight:normal;fill:#000000;fill-opacity:1;stroke:none;font-family:Bitstream Vera Sans"
         xml:space="preserve"><tspan
           style="font-size:8px"
           y="781.44238"
           x="510.16364"
           id="tspan6425"
           sodipodi:role="line">modbus &amp; ssh</tspan></text>
      <text
         id="text6423-4"
         y="837.4986"
         x="435.82382"
         style="font-size:20px;font-style:normal;font-weight:normal;fill:#000000;fill-opacity:1;stroke:none;font-family:Bitstream Vera Sans"
         xml:space="preserve"><tspan
           style="font-size:8px"
           y="837.4986"
           x="435.82382"
           id="tspan6425-3"
           sodipodi:role="line">http push</tspan></text>
    </g>
    <text
       xml:space="preserve"
       style="font-size:29.13250351px;font-style:normal;font-weight:normal;fill:#000000;fill-opacity:1;stroke:none;font-family:Bitstream Vera Sans"
       x="27.64897"
       y="965.83929"
       id="text6628"><tspan
         sodipodi:role="line"
         id="tspan6630"
         x="27.64897"
         y="965.83929"
         style="font-size:14.56625175px">solar tree internet config</tspan><tspan
         sodipodi:role="line"
         x="27.64897"
         y="984.04706"
         id="tspan6632"
         style="font-size:14.56625175px">mattvenn.net 29/9/2012</tspan></text>
  </g>
</svg>
